<svg xmlns="http://www.w3.org/2000/svg" viewBox="0 0 1002 646" role="img" aria-labelledby="title desc"><title id="title">Series-evaluation multiplication bit volume</title><desc id="desc">Machine-independent work metric: sum of operand bits over every split-phase multiplication.</desc><style>text{font-family:-apple-system,BlinkMacSystemFont,'Segoe UI',sans-serif}.title{font-size:22px;font-weight:700;fill:#111827}.subtitle{font-size:13px;fill:#64748b}.axis{stroke:#1f2937;stroke-width:1.5}.grid{stroke:#e2e8f0;stroke-width:1}.tick{font-size:12px;fill:#64748b}.label{font-size:13px;font-weight:600;fill:#111827}.legend{font-size:13px;fill:#111827}.legend-box{fill:#f8fafc;stroke:#e2e8f0;stroke-width:1}.refline{stroke:#94a3b8;stroke-width:1.5;stroke-dasharray:6 4}</style><rect width="1002" height="646" fill="#fff"/><text class="title" x="40" y="38">Series-evaluation multiplication bit volume</text><text class="subtitle" x="40" y="58">Machine-independent work metric: sum of operand bits over every split-phase multiplication.</text><line class="grid" x1="82" y1="74" x2="82" y2="454"/><text class="tick" x="82" y="476" text-anchor="middle">1,000</text><line class="grid" x1="258" y1="74" x2="258" y2="454"/><text class="tick" x="258" y="476" text-anchor="middle">10^4</text><line class="grid" x1="434" y1="74" x2="434" y2="454"/><text class="tick" x="434" y="476" text-anchor="middle">10^5</text><line class="grid" x1="610" y1="74" x2="610" y2="454"/><text class="tick" x="610" y="476" text-anchor="middle">10^6</text><line class="grid" x1="786" y1="74" x2="786" y2="454"/><text class="tick" x="786" y="476" text-anchor="middle">10^7</text><line class="grid" x1="962" y1="74" x2="962" y2="454"/><text class="tick" x="962" y="476" text-anchor="middle">10^8</text><line class="grid" x1="82" y1="454" x2="962" y2="454"/><text class="tick" x="72" y="458" text-anchor="end">1e4</text><line class="grid" x1="82" y1="399.71" x2="962" y2="399.71"/><text class="tick" x="72" y="403.71" text-anchor="end">1e5</text><line class="grid" x1="82" y1="345.43" x2="962" y2="345.43"/><text class="tick" x="72" y="349.43" text-anchor="end">1e6</text><line class="grid" x1="82" y1="291.14" x2="962" y2="291.14"/><text class="tick" x="72" y="295.14" text-anchor="end">1e7</text><line class="grid" x1="82" y1="236.86" x2="962" y2="236.86"/><text class="tick" x="72" y="240.86" text-anchor="end">1e8</text><line class="grid" x1="82" y1="182.57" x2="962" y2="182.57"/><text class="tick" x="72" y="186.57" text-anchor="end">1e9</text><line class="grid" x1="82" y1="128.29" x2="962" y2="128.29"/><text class="tick" x="72" y="132.29" text-anchor="end">1e10</text><line class="grid" x1="82" y1="74" x2="962" y2="74"/><text class="tick" x="72" y="78" text-anchor="end">1e11</text><line class="axis" x1="82" y1="454" x2="962" y2="454"/><line class="axis" x1="82" y1="74" x2="82" y2="454"/><text class="label" x="522" y="498" text-anchor="middle">Decimal digits</text><text class="label" transform="translate(24 264) rotate(-90)" text-anchor="middle">Bit volume (bits, log)</text><path d="M82 400.58 L258 337.17 L434 273.17 L610 211.86 L786 151.5 L962 91.33" fill="none" stroke="#2155d9" stroke-width="3" stroke-linejoin="round" stroke-linecap="round"/><circle cx="82" cy="400.58" r="5" fill="#2155d9" stroke="#fff" stroke-width="1.8"/><circle cx="258" cy="337.17" r="5" fill="#2155d9" stroke="#fff" stroke-width="1.8"/><circle cx="434" cy="273.17" r="5" fill="#2155d9" stroke="#fff" stroke-width="1.8"/><circle cx="610" cy="211.86" r="5" fill="#2155d9" stroke="#fff" stroke-width="1.8"/><circle cx="786" cy="151.5" r="5" fill="#2155d9" stroke="#fff" stroke-width="1.8"/><circle cx="962" cy="91.33" r="5" fill="#2155d9" stroke="#fff" stroke-width="1.8"/><path d="M258 335.14 L434 272.61 L610 210.69 L786 150.59" fill="none" stroke="#dc2626" stroke-width="3" stroke-linejoin="round" stroke-linecap="round"/><circle cx="258" cy="335.14" r="5" fill="#dc2626" stroke="#fff" stroke-width="1.8"/><circle cx="434" cy="272.61" r="5" fill="#dc2626" stroke="#fff" stroke-width="1.8"/><circle cx="610" cy="210.69" r="5" fill="#dc2626" stroke="#fff" stroke-width="1.8"/><circle cx="786" cy="150.59" r="5" fill="#dc2626" stroke="#fff" stroke-width="1.8"/><circle cx="610" cy="210.69" r="5" fill="#6d28d9" stroke="#fff" stroke-width="1.8"/><path d="M258 337.17 L434 273.17 L610 211.86 L786 151.5" fill="none" stroke="#0891b2" stroke-width="3" stroke-linejoin="round" stroke-linecap="round"/><circle cx="258" cy="337.17" r="5" fill="#0891b2" stroke="#fff" stroke-width="1.8"/><circle cx="434" cy="273.17" r="5" fill="#0891b2" stroke="#fff" stroke-width="1.8"/><circle cx="610" cy="211.86" r="5" fill="#0891b2" stroke="#fff" stroke-width="1.8"/><circle cx="786" cy="151.5" r="5" fill="#0891b2" stroke="#fff" stroke-width="1.8"/><path d="M434 272.61 L610 210.69" fill="none" stroke="#be123c" stroke-width="3" stroke-linejoin="round" stroke-linecap="round"/><circle cx="434" cy="272.61" r="5" fill="#be123c" stroke="#fff" stroke-width="1.8"/><circle cx="610" cy="210.69" r="5" fill="#be123c" stroke="#fff" stroke-width="1.8"/><path d="M82 363.74 L258 251.76 L434 139.76" fill="none" stroke="#64748b" stroke-width="3" stroke-linejoin="round" stroke-linecap="round"/><circle cx="82" cy="363.74" r="5" fill="#64748b" stroke="#fff" stroke-width="1.8"/><circle cx="258" cy="251.76" r="5" fill="#64748b" stroke="#fff" stroke-width="1.8"/><circle cx="434" cy="139.76" r="5" fill="#64748b" stroke="#fff" stroke-width="1.8"/><path d="M82 363.74 L258 251.76" fill="none" stroke="#94a3b8" stroke-width="3" stroke-linejoin="round" stroke-linecap="round"/><circle cx="82" cy="363.74" r="5" fill="#94a3b8" stroke="#fff" stroke-width="1.8"/><circle cx="258" cy="251.76" r="5" fill="#94a3b8" stroke="#fff" stroke-width="1.8"/><path d="M258 316.8 L434 251.62 L610 188.01 L786 127.3" fill="none" stroke="#c2410c" stroke-width="3" stroke-linejoin="round" stroke-linecap="round"/><circle cx="258" cy="316.8" r="5" fill="#c2410c" stroke="#fff" stroke-width="1.8"/><circle cx="434" cy="251.62" r="5" fill="#c2410c" stroke="#fff" stroke-width="1.8"/><circle cx="610" cy="188.01" r="5" fill="#c2410c" stroke="#fff" stroke-width="1.8"/><circle cx="786" cy="127.3" r="5" fill="#c2410c" stroke="#fff" stroke-width="1.8"/><rect class="legend-box" x="82" y="518" width="880" height="112" rx="8"/><line x1="98" y1="541" x2="120" y2="541" stroke="#2155d9" stroke-width="3" stroke-linecap="round"/><circle cx="109" cy="541" r="4.5" fill="#2155d9" stroke="#fff" stroke-width="1.5"/><text class="legend" x="128" y="546">Chudnovsky BS</text><line x1="391.33" y1="541" x2="413.33" y2="541" stroke="#dc2626" stroke-width="3" stroke-linecap="round"/><circle cx="402.33" cy="541" r="4.5" fill="#dc2626" stroke="#fff" stroke-width="1.5"/><text class="legend" x="421.33" y="546">Truncated crown (ours)</text><line x1="684.67" y1="541" x2="706.67" y2="541" stroke="#6d28d9" stroke-width="3" stroke-linecap="round"/><circle cx="695.67" cy="541" r="4.5" fill="#6d28d9" stroke="#fff" stroke-width="1.5"/><text class="legend" x="714.67" y="546">chudnovsky_bs_crown_h15</text><line x1="98" y1="565" x2="120" y2="565" stroke="#0891b2" stroke-width="3" stroke-linecap="round"/><circle cx="109" cy="565" r="4.5" fill="#0891b2" stroke="#fff" stroke-width="1.5"/><text class="legend" x="128" y="570">Chudnovsky valuation</text><line x1="391.33" y1="565" x2="413.33" y2="565" stroke="#be123c" stroke-width="3" stroke-linecap="round"/><circle cx="402.33" cy="565" r="4.5" fill="#be123c" stroke="#fff" stroke-width="1.5"/><text class="legend" x="421.33" y="570">Hybrid router (H14)</text><line x1="684.67" y1="565" x2="706.67" y2="565" stroke="#64748b" stroke-width="3" stroke-linecap="round"/><circle cx="695.67" cy="565" r="4.5" fill="#64748b" stroke="#fff" stroke-width="1.5"/><text class="legend" x="714.67" y="570">Chudnovsky naive</text><line x1="98" y1="589" x2="120" y2="589" stroke="#94a3b8" stroke-width="3" stroke-linecap="round"/><circle cx="109" cy="589" r="4.5" fill="#94a3b8" stroke="#fff" stroke-width="1.5"/><text class="legend" x="128" y="594">Chudnovsky recurrence</text><line x1="391.33" y1="589" x2="413.33" y2="589" stroke="#c2410c" stroke-width="3" stroke-linecap="round"/><circle cx="402.33" cy="589" r="4.5" fill="#c2410c" stroke="#fff" stroke-width="1.5"/><text class="legend" x="421.33" y="594">Ramanujan BS</text></svg>