<svg xmlns="http://www.w3.org/2000/svg" viewBox="0 0 1002 694" role="img" aria-labelledby="title desc"><title id="title">Verified digits per second</title><desc id="desc">Total cost includes verification; higher is better.</desc><style>text{font-family:-apple-system,BlinkMacSystemFont,'Segoe UI',sans-serif}.title{font-size:22px;font-weight:700;fill:#111827}.subtitle{font-size:13px;fill:#64748b}.axis{stroke:#1f2937;stroke-width:1.5}.grid{stroke:#e2e8f0;stroke-width:1}.tick{font-size:12px;fill:#64748b}.label{font-size:13px;font-weight:600;fill:#111827}.legend{font-size:13px;fill:#111827}.legend-box{fill:#f8fafc;stroke:#e2e8f0;stroke-width:1}.refline{stroke:#94a3b8;stroke-width:1.5;stroke-dasharray:6 4}</style><rect width="1002" height="694" fill="#fff"/><text class="title" x="40" y="38">Verified digits per second</text><text class="subtitle" x="40" y="58">Total cost includes verification; higher is better.</text><line class="grid" x1="82" y1="74" x2="82" y2="454"/><text class="tick" x="82" y="476" text-anchor="middle">1,000</text><line class="grid" x1="258" y1="74" x2="258" y2="454"/><text class="tick" x="258" y="476" text-anchor="middle">10^4</text><line class="grid" x1="434" y1="74" x2="434" y2="454"/><text class="tick" x="434" y="476" text-anchor="middle">10^5</text><line class="grid" x1="610" y1="74" x2="610" y2="454"/><text class="tick" x="610" y="476" text-anchor="middle">10^6</text><line class="grid" x1="786" y1="74" x2="786" y2="454"/><text class="tick" x="786" y="476" text-anchor="middle">10^7</text><line class="grid" x1="962" y1="74" x2="962" y2="454"/><text class="tick" x="962" y="476" text-anchor="middle">10^8</text><line class="grid" x1="82" y1="454" x2="962" y2="454"/><text class="tick" x="72" y="458" text-anchor="end">1e4</text><line class="grid" x1="82" y1="359" x2="962" y2="359"/><text class="tick" x="72" y="363" text-anchor="end">1e5</text><line class="grid" x1="82" y1="264" x2="962" y2="264"/><text class="tick" x="72" y="268" text-anchor="end">1e6</text><line class="grid" x1="82" y1="169" x2="962" y2="169"/><text class="tick" x="72" y="173" text-anchor="end">1e7</text><line class="grid" x1="82" y1="74" x2="962" y2="74"/><text class="tick" x="72" y="78" text-anchor="end">1e8</text><line class="axis" x1="82" y1="454" x2="962" y2="454"/><line class="axis" x1="82" y1="74" x2="82" y2="454"/><text class="label" x="522" y="498" text-anchor="middle">Decimal digits</text><text class="label" transform="translate(24 264) rotate(-90)" text-anchor="middle">Digits / second (log)</text><path d="M82 163.73 L258 167.06 L434 157.2 L610 167.24 L786 170.58 L962 180.1" fill="none" stroke="#be123c" stroke-width="3" stroke-linejoin="round" stroke-linecap="round"/><polygon points="82,157.73 83.59,161.54 87.71,161.87 84.57,164.56 85.53,168.58 82,166.43 78.47,168.58 79.43,164.56 76.29,161.87 80.41,161.54" fill="#be123c" stroke="#fff" stroke-width="1.8" stroke-linejoin="round"/><polygon points="258,161.06 259.59,164.87 263.71,165.2 260.57,167.89 261.53,171.91 258,169.76 254.47,171.91 255.43,167.89 252.29,165.2 256.41,164.87" fill="#be123c" stroke="#fff" stroke-width="1.8" stroke-linejoin="round"/><polygon points="434,151.2 435.59,155.02 439.71,155.35 436.57,158.04 437.53,162.06 434,159.9 430.47,162.06 431.43,158.04 428.29,155.35 432.41,155.02" fill="#be123c" stroke="#fff" stroke-width="1.8" stroke-linejoin="round"/><polygon points="610,161.24 611.59,165.05 615.71,165.38 612.57,168.07 613.53,172.09 610,169.94 606.47,172.09 607.43,168.07 604.29,165.38 608.41,165.05" fill="#be123c" stroke="#fff" stroke-width="1.8" stroke-linejoin="round"/><polygon points="786,164.58 787.59,168.4 791.71,168.73 788.57,171.42 789.53,175.44 786,173.28 782.47,175.44 783.43,171.42 780.29,168.73 784.41,168.4" fill="#be123c" stroke="#fff" stroke-width="1.8" stroke-linejoin="round"/><polygon points="962,174.1 963.59,177.91 967.71,178.24 964.57,180.93 965.53,184.95 962,182.8 958.47,184.95 959.43,180.93 956.29,178.24 960.41,177.91" fill="#be123c" stroke="#fff" stroke-width="1.8" stroke-linejoin="round"/><path d="M82 170.22 L258 176.32 L434 157.92 L610 170.47 L786 181.01 L962 205.65" fill="none" stroke="#f59e0b" stroke-width="3" stroke-linejoin="round" stroke-linecap="round" stroke-dasharray="7 4"/><polygon points="82,165.87 86.35,170.22 82,174.57 77.65,170.22" fill="#f59e0b" stroke="#fff" stroke-width="1.8" stroke-linejoin="round"/><polygon points="258,171.97 262.35,176.32 258,180.67 253.65,176.32" fill="#f59e0b" stroke="#fff" stroke-width="1.8" stroke-linejoin="round"/><polygon points="434,153.57 438.35,157.92 434,162.27 429.65,157.92" fill="#f59e0b" stroke="#fff" stroke-width="1.8" stroke-linejoin="round"/><polygon points="610,166.12 614.35,170.47 610,174.82 605.65,170.47" fill="#f59e0b" stroke="#fff" stroke-width="1.8" stroke-linejoin="round"/><polygon points="786,176.66 790.35,181.01 786,185.36 781.65,181.01" fill="#f59e0b" stroke="#fff" stroke-width="1.8" stroke-linejoin="round"/><polygon points="962,201.3 966.35,205.65 962,210 957.65,205.65" fill="#f59e0b" stroke="#fff" stroke-width="1.8" stroke-linejoin="round"/><path d="M82 162.78 L258 172.21 L434 157.8 L610 171.04 L786 204.86 L962 208.73" fill="none" stroke="#6d28d9" stroke-width="3" stroke-linejoin="round" stroke-linecap="round" stroke-dasharray="3 4"/><polygon points="82,157.38 87.4,168.18 76.6,168.18" fill="#6d28d9" stroke="#fff" stroke-width="1.8" stroke-linejoin="round"/><polygon points="258,166.81 263.4,177.61 252.6,177.61" fill="#6d28d9" stroke="#fff" stroke-width="1.8" stroke-linejoin="round"/><polygon points="434,152.4 439.4,163.2 428.6,163.2" fill="#6d28d9" stroke="#fff" stroke-width="1.8" stroke-linejoin="round"/><polygon points="610,165.64 615.4,176.44 604.6,176.44" fill="#6d28d9" stroke="#fff" stroke-width="1.8" stroke-linejoin="round"/><polygon points="786,199.46 791.4,210.26 780.6,210.26" fill="#6d28d9" stroke="#fff" stroke-width="1.8" stroke-linejoin="round"/><polygon points="962,203.33 967.4,214.13 956.6,214.13" fill="#6d28d9" stroke="#fff" stroke-width="1.8" stroke-linejoin="round"/><path d="M82 163.25 L258 171.01 L434 157.43 L610 176.99 L786 191.95 L962 215.28" fill="none" stroke="#dc2626" stroke-width="3" stroke-linejoin="round" stroke-linecap="round"/><circle cx="82" cy="163.25" r="6" fill="#dc2626" stroke="#fff" stroke-width="1.8"/><circle cx="258" cy="171.01" r="6" fill="#dc2626" stroke="#fff" stroke-width="1.8"/><circle cx="434" cy="157.43" r="6" fill="#dc2626" stroke="#fff" stroke-width="1.8"/><circle cx="610" cy="176.99" r="6" fill="#dc2626" stroke="#fff" stroke-width="1.8"/><circle cx="786" cy="191.95" r="6" fill="#dc2626" stroke="#fff" stroke-width="1.8"/><circle cx="962" cy="215.28" r="6" fill="#dc2626" stroke="#fff" stroke-width="1.8"/><path d="M82 162.78 L258 185.81 L434 218.67 L610 273.77 L786 239.58 L962 261.21" fill="none" stroke="#0891b2" stroke-width="3" stroke-linejoin="round" stroke-linecap="round" stroke-dasharray="8 3 2 3"/><rect x="77.65" y="158.43" width="8.7" height="8.7" rx="1.5" fill="#0891b2" stroke="#fff" stroke-width="1.8"/><rect x="253.65" y="181.46" width="8.7" height="8.7" rx="1.5" fill="#0891b2" stroke="#fff" stroke-width="1.8"/><rect x="429.65" y="214.32" width="8.7" height="8.7" rx="1.5" fill="#0891b2" stroke="#fff" stroke-width="1.8"/><rect x="605.65" y="269.42" width="8.7" height="8.7" rx="1.5" fill="#0891b2" stroke="#fff" stroke-width="1.8"/><rect x="781.65" y="235.23" width="8.7" height="8.7" rx="1.5" fill="#0891b2" stroke="#fff" stroke-width="1.8"/><rect x="957.65" y="256.86" width="8.7" height="8.7" rx="1.5" fill="#0891b2" stroke="#fff" stroke-width="1.8"/><path d="M82 163.25 L258 183 L434 219.94 L610 219.64 L786 239.68 L962 261.71" fill="none" stroke="#2155d9" stroke-width="3" stroke-linejoin="round" stroke-linecap="round"/><circle cx="82" cy="163.25" r="6" fill="#fff" stroke="#2155d9" stroke-width="2.2"/><circle cx="258" cy="183" r="6" fill="#fff" stroke="#2155d9" stroke-width="2.2"/><circle cx="434" cy="219.94" r="6" fill="#fff" stroke="#2155d9" stroke-width="2.2"/><circle cx="610" cy="219.64" r="6" fill="#fff" stroke="#2155d9" stroke-width="2.2"/><circle cx="786" cy="239.68" r="6" fill="#fff" stroke="#2155d9" stroke-width="2.2"/><circle cx="962" cy="261.71" r="6" fill="#fff" stroke="#2155d9" stroke-width="2.2"/><path d="M82 210.44 L258 294.24 L434 422.09" fill="none" stroke="#64748b" stroke-width="3" stroke-linejoin="round" stroke-linecap="round" stroke-dasharray="2 5"/><path d="M76 204.44 L88 216.44 M88 204.44 L76 216.44" stroke="#64748b" stroke-width="2.2" stroke-linecap="round"/><path d="M252 288.24 L264 300.24 M264 288.24 L252 300.24" stroke="#64748b" stroke-width="2.2" stroke-linecap="round"/><path d="M428 416.09 L440 428.09 M440 416.09 L428 428.09" stroke="#64748b" stroke-width="2.2" stroke-linecap="round"/><path d="M82 195.26 L258 291.87" fill="none" stroke="#94a3b8" stroke-width="3" stroke-linejoin="round" stroke-linecap="round" stroke-dasharray="2 5"/><path d="M76 195.26 L88 195.26 M82 189.26 L82 201.26" stroke="#94a3b8" stroke-width="2.2" stroke-linecap="round"/><path d="M252 291.87 L264 291.87 M258 285.87 L258 297.87" stroke="#94a3b8" stroke-width="2.2" stroke-linecap="round"/><path d="M82 167.32 L258 175.51 L434 195.46 L610 205.27 L786 238.76" fill="none" stroke="#c2410c" stroke-width="3" stroke-linejoin="round" stroke-linecap="round"/><polygon points="76.6,161.92 87.4,161.92 82,172.72" fill="#c2410c" stroke="#fff" stroke-width="1.8" stroke-linejoin="round"/><polygon points="252.6,170.11 263.4,170.11 258,180.91" fill="#c2410c" stroke="#fff" stroke-width="1.8" stroke-linejoin="round"/><polygon points="428.6,190.06 439.4,190.06 434,200.86" fill="#c2410c" stroke="#fff" stroke-width="1.8" stroke-linejoin="round"/><polygon points="604.6,199.87 615.4,199.87 610,210.67" fill="#c2410c" stroke="#fff" stroke-width="1.8" stroke-linejoin="round"/><polygon points="780.6,233.36 791.4,233.36 786,244.16" fill="#c2410c" stroke="#fff" stroke-width="1.8" stroke-linejoin="round"/><path d="M82 196.76 L258 245.65 L434 287.5" fill="none" stroke="#b45309" stroke-width="3" stroke-linejoin="round" stroke-linecap="round" stroke-dasharray="5 4"/><rect x="77.65" y="192.41" width="8.7" height="8.7" rx="1.5" fill="#fff" stroke="#b45309" stroke-width="2.2"/><rect x="253.65" y="241.3" width="8.7" height="8.7" rx="1.5" fill="#fff" stroke="#b45309" stroke-width="2.2"/><rect x="429.65" y="283.15" width="8.7" height="8.7" rx="1.5" fill="#fff" stroke="#b45309" stroke-width="2.2"/><path d="M82 163.25 L258 195.78 L434 239.16" fill="none" stroke="#15803d" stroke-width="3" stroke-linejoin="round" stroke-linecap="round" stroke-dasharray="6 3"/><polygon points="82,158.9 86.35,163.25 82,167.6 77.65,163.25" fill="#fff" stroke="#15803d" stroke-width="2.2" stroke-linejoin="round"/><polygon points="258,191.43 262.35,195.78 258,200.13 253.65,195.78" fill="#fff" stroke="#15803d" stroke-width="2.2" stroke-linejoin="round"/><polygon points="434,234.81 438.35,239.16 434,243.51 429.65,239.16" fill="#fff" stroke="#15803d" stroke-width="2.2" stroke-linejoin="round"/><path d="M82 169.82 L258 209.02 L434 250.86 L610 285.17" fill="none" stroke="#9333ea" stroke-width="3" stroke-linejoin="round" stroke-linecap="round" stroke-dasharray="4 3"/><polygon points="87.2,172.82 82,175.82 76.8,172.82 76.8,166.82 82,163.82 87.2,166.82" fill="#9333ea" stroke="#fff" stroke-width="1.8" stroke-linejoin="round"/><polygon points="263.2,212.02 258,215.02 252.8,212.02 252.8,206.02 258,203.02 263.2,206.02" fill="#9333ea" stroke="#fff" stroke-width="1.8" stroke-linejoin="round"/><polygon points="439.2,253.86 434,256.86 428.8,253.86 428.8,247.86 434,244.86 439.2,247.86" fill="#9333ea" stroke="#fff" stroke-width="1.8" stroke-linejoin="round"/><polygon points="615.2,288.17 610,291.17 604.8,288.17 604.8,282.17 610,279.17 615.2,282.17" fill="#9333ea" stroke="#fff" stroke-width="1.8" stroke-linejoin="round"/><path d="M82 179.18 L258 212.97 L434 255.36 L610 279.1" fill="none" stroke="#7c3aed" stroke-width="3" stroke-linejoin="round" stroke-linecap="round" stroke-dasharray="8 3"/><polygon points="82,173.18 87.71,177.33 85.53,184.04 78.47,184.04 76.29,177.33" fill="#7c3aed" stroke="#fff" stroke-width="1.8" stroke-linejoin="round"/><polygon points="258,206.97 263.71,211.12 261.53,217.82 254.47,217.82 252.29,211.12" fill="#7c3aed" stroke="#fff" stroke-width="1.8" stroke-linejoin="round"/><polygon points="434,249.36 439.71,253.51 437.53,260.21 430.47,260.21 428.29,253.51" fill="#7c3aed" stroke="#fff" stroke-width="1.8" stroke-linejoin="round"/><polygon points="610,273.1 615.71,277.25 613.53,283.96 606.47,283.96 604.29,277.25" fill="#7c3aed" stroke="#fff" stroke-width="1.8" stroke-linejoin="round"/><path d="M82 154.87 L258 165.56 L434 162.13 L610 168.51 L786 168.25 L962 182.71" fill="none" stroke="#0f766e" stroke-width="3" stroke-linejoin="round" stroke-linecap="round" stroke-dasharray="10 3"/><polygon points="82,148.87 83.59,152.69 87.71,153.02 84.57,155.7 85.53,159.72 82,157.57 78.47,159.72 79.43,155.7 76.29,153.02 80.41,152.69" fill="#fff" stroke="#0f766e" stroke-width="2.2" stroke-linejoin="round"/><polygon points="258,159.56 259.59,163.38 263.71,163.71 260.57,166.39 261.53,170.41 258,168.26 254.47,170.41 255.43,166.39 252.29,163.71 256.41,163.38" fill="#fff" stroke="#0f766e" stroke-width="2.2" stroke-linejoin="round"/><polygon points="434,156.13 435.59,159.95 439.71,160.28 436.57,162.97 437.53,166.99 434,164.83 430.47,166.99 431.43,162.97 428.29,160.28 432.41,159.95" fill="#fff" stroke="#0f766e" stroke-width="2.2" stroke-linejoin="round"/><polygon points="610,162.51 611.59,166.33 615.71,166.66 612.57,169.35 613.53,173.37 610,171.21 606.47,173.37 607.43,169.35 604.29,166.66 608.41,166.33" fill="#fff" stroke="#0f766e" stroke-width="2.2" stroke-linejoin="round"/><polygon points="786,162.25 787.59,166.06 791.71,166.39 788.57,169.08 789.53,173.1 786,170.95 782.47,173.1 783.43,169.08 780.29,166.39 784.41,166.06" fill="#fff" stroke="#0f766e" stroke-width="2.2" stroke-linejoin="round"/><polygon points="962,176.71 963.59,180.52 967.71,180.85 964.57,183.54 965.53,187.56 962,185.41 958.47,187.56 959.43,183.54 956.29,180.85 960.41,180.52" fill="#fff" stroke="#0f766e" stroke-width="2.2" stroke-linejoin="round"/><path d="M82 182.88 L258 163.77 L434 209.39 L610 232.05 L786 256.72 L962 276.22" fill="none" stroke="#475569" stroke-width="3" stroke-linejoin="round" stroke-linecap="round" stroke-dasharray="3 3"/><path d="M76 182.88 L88 182.88 M82 176.88 L82 188.88" transform="rotate(45 82 182.88)" stroke="#475569" stroke-width="2.2" stroke-linecap="round"/><path d="M252 163.77 L264 163.77 M258 157.77 L258 169.77" transform="rotate(45 258 163.77)" stroke="#475569" stroke-width="2.2" stroke-linecap="round"/><path d="M428 209.39 L440 209.39 M434 203.39 L434 215.39" transform="rotate(45 434 209.39)" stroke="#475569" stroke-width="2.2" stroke-linecap="round"/><path d="M604 232.05 L616 232.05 M610 226.05 L610 238.05" transform="rotate(45 610 232.05)" stroke="#475569" stroke-width="2.2" stroke-linecap="round"/><path d="M780 256.72 L792 256.72 M786 250.72 L786 262.72" transform="rotate(45 786 256.72)" stroke="#475569" stroke-width="2.2" stroke-linecap="round"/><path d="M956 276.22 L968 276.22 M962 270.22 L962 282.22" transform="rotate(45 962 276.22)" stroke="#475569" stroke-width="2.2" stroke-linecap="round"/><rect class="legend-box" x="82" y="518" width="880" height="208" rx="8"/><text class="legend" x="98" y="546" font-weight="700" fill="#64748b">SATO-X Chudnovsky</text><line x1="391.33" y1="541" x2="415.33" y2="541" stroke="#be123c" stroke-width="3" stroke-linecap="round"/><polygon points="403.33,535.8 404.71,539.11 408.28,539.39 405.56,541.72 406.39,545.21 403.33,543.34 400.28,545.21 401.11,541.72 398.39,539.39 401.96,539.11" fill="#be123c" stroke="#fff" stroke-width="1.8" stroke-linejoin="round"/><text class="legend" x="423.33" y="546">Hybrid router (H22)</text><line x1="684.67" y1="541" x2="708.67" y2="541" stroke="#f59e0b" stroke-width="3" stroke-linecap="round" stroke-dasharray="7 4"/><polygon points="696.67,537.23 700.44,541 696.67,544.77 692.9,541" fill="#f59e0b" stroke="#fff" stroke-width="1.8" stroke-linejoin="round"/><text class="legend" x="716.67" y="546">Crown + autotune</text><line x1="98" y1="565" x2="122" y2="565" stroke="#6d28d9" stroke-width="3" stroke-linecap="round" stroke-dasharray="3 4"/><polygon points="110,560.32 114.68,569.68 105.32,569.68" fill="#6d28d9" stroke="#fff" stroke-width="1.8" stroke-linejoin="round"/><text class="legend" x="130" y="570">chudnovsky_bs_crown_h15</text><line x1="391.33" y1="565" x2="415.33" y2="565" stroke="#dc2626" stroke-width="3" stroke-linecap="round"/><circle cx="403.33" cy="565" r="5.2" fill="#dc2626" stroke="#fff" stroke-width="1.8"/><text class="legend" x="423.33" y="570">Truncated crown (ours)</text><line x1="684.67" y1="565" x2="708.67" y2="565" stroke="#0891b2" stroke-width="3" stroke-linecap="round" stroke-dasharray="8 3 2 3"/><rect x="692.9" y="561.23" width="7.54" height="7.54" rx="1.5" fill="#0891b2" stroke="#fff" stroke-width="1.8"/><text class="legend" x="716.67" y="570">Chudnovsky valuation</text><line x1="98" y1="589" x2="122" y2="589" stroke="#2155d9" stroke-width="3" stroke-linecap="round"/><circle cx="110" cy="589" r="5.2" fill="#fff" stroke="#2155d9" stroke-width="2.2"/><text class="legend" x="130" y="594">Chudnovsky BS</text><line x1="391.33" y1="589" x2="415.33" y2="589" stroke="#64748b" stroke-width="3" stroke-linecap="round" stroke-dasharray="2 5"/><path d="M398.13 583.8 L408.53 594.2 M408.53 583.8 L398.13 594.2" stroke="#64748b" stroke-width="2.2" stroke-linecap="round"/><text class="legend" x="423.33" y="594">Chudnovsky naive</text><line x1="684.67" y1="589" x2="708.67" y2="589" stroke="#94a3b8" stroke-width="3" stroke-linecap="round" stroke-dasharray="2 5"/><path d="M691.47 589 L701.87 589 M696.67 583.8 L696.67 594.2" stroke="#94a3b8" stroke-width="2.2" stroke-linecap="round"/><text class="legend" x="716.67" y="594">Chudnovsky recurrence</text><text class="legend" x="98" y="618" font-weight="700" fill="#64748b">Other Series</text><line x1="391.33" y1="613" x2="415.33" y2="613" stroke="#c2410c" stroke-width="3" stroke-linecap="round"/><polygon points="398.65,608.32 408.01,608.32 403.33,617.68" fill="#c2410c" stroke="#fff" stroke-width="1.8" stroke-linejoin="round"/><text class="legend" x="423.33" y="618">Ramanujan BS</text><line x1="684.67" y1="613" x2="708.67" y2="613" stroke="#b45309" stroke-width="3" stroke-linecap="round" stroke-dasharray="5 4"/><rect x="692.9" y="609.23" width="7.54" height="7.54" rx="1.5" fill="#fff" stroke="#b45309" stroke-width="2.2"/><text class="legend" x="716.67" y="618">Machin arctan</text><text class="legend" x="98" y="642" font-weight="700" fill="#64748b">Iterative</text><line x1="391.33" y1="637" x2="415.33" y2="637" stroke="#15803d" stroke-width="3" stroke-linecap="round" stroke-dasharray="6 3"/><polygon points="403.33,633.23 407.1,637 403.33,640.77 399.56,637" fill="#fff" stroke="#15803d" stroke-width="2.2" stroke-linejoin="round"/><text class="legend" x="423.33" y="642">AGM</text><line x1="684.67" y1="637" x2="708.67" y2="637" stroke="#9333ea" stroke-width="3" stroke-linecap="round" stroke-dasharray="4 3"/><polygon points="701.17,639.6 696.67,642.2 692.16,639.6 692.16,634.4 696.67,631.8 701.17,634.4" fill="#9333ea" stroke="#fff" stroke-width="1.8" stroke-linejoin="round"/><text class="legend" x="716.67" y="642">Borwein cubic</text><line x1="98" y1="661" x2="122" y2="661" stroke="#7c3aed" stroke-width="3" stroke-linecap="round" stroke-dasharray="8 3"/><polygon points="110,655.8 114.95,659.39 113.06,665.21 106.94,665.21 105.05,659.39" fill="#7c3aed" stroke="#fff" stroke-width="1.8" stroke-linejoin="round"/><text class="legend" x="130" y="666">Borwein quartic</text><text class="legend" x="391.33" y="666" font-weight="700" fill="#64748b">External References</text><line x1="684.67" y1="661" x2="708.67" y2="661" stroke="#0f766e" stroke-width="3" stroke-linecap="round" stroke-dasharray="10 3"/><polygon points="696.67,655.8 698.04,659.11 701.61,659.39 698.89,661.72 699.72,665.21 696.67,663.34 693.61,665.21 694.44,661.72 691.72,659.39 695.29,659.11" fill="#fff" stroke="#0f766e" stroke-width="2.2" stroke-linejoin="round"/><text class="legend" x="716.67" y="666">FLINT/Arb const_pi</text><line x1="98" y1="685" x2="122" y2="685" stroke="#475569" stroke-width="3" stroke-linecap="round" stroke-dasharray="3 3"/><path d="M104.8 685 L115.2 685 M110 679.8 L110 690.2" transform="rotate(45 110 685)" stroke="#475569" stroke-width="2.2" stroke-linecap="round"/><text class="legend" x="130" y="690">MPFR const_pi</text></svg>