<svg xmlns="http://www.w3.org/2000/svg" viewBox="0 0 960 540" role="img" aria-labelledby="title desc"><title id="title">Terms or iterations by precision</title><desc id="desc">Series methods report terms; AGM reports iterations.</desc><style>text{font-family:-apple-system,BlinkMacSystemFont,'Segoe UI',sans-serif}.title{font-size:22px;font-weight:700;fill:#111827}.subtitle{font-size:12px;fill:#64748b}.axis{stroke:#1f2937;stroke-width:1.4}.grid{stroke:#d7dde8;stroke-width:1}.tick{font-size:11px;fill:#64748b}.label{font-size:12px;fill:#111827}.legend{font-size:12px;fill:#111827}</style><rect width="960" height="540" fill="#fff"/><text class="title" x="40" y="38">Terms or iterations by precision</text><text class="subtitle" x="40" y="58">Series methods report terms; AGM reports iterations.</text><line class="grid" x1="82" y1="74" x2="82" y2="430"/><text class="tick" x="82" y="454" text-anchor="middle">1e3</text><line class="grid" x1="338" y1="74" x2="338" y2="430"/><text class="tick" x="338" y="454" text-anchor="middle">1e4</text><line class="grid" x1="594" y1="74" x2="594" y2="430"/><text class="tick" x="594" y="454" text-anchor="middle">1e5</text><line class="grid" x1="850" y1="74" x2="850" y2="430"/><text class="tick" x="850" y="454" text-anchor="middle">1e6</text><line class="grid" x1="82" y1="430" x2="850" y2="430"/><text class="tick" x="72" y="434" text-anchor="end">1e0</text><line class="grid" x1="82" y1="370.67" x2="850" y2="370.67"/><text class="tick" x="72" y="374.67" text-anchor="end">1e1</text><line class="grid" x1="82" y1="311.33" x2="850" y2="311.33"/><text class="tick" x="72" y="315.33" text-anchor="end">1e2</text><line class="grid" x1="82" y1="252" x2="850" y2="252"/><text class="tick" x="72" y="256" text-anchor="end">1e3</text><line class="grid" x1="82" y1="192.67" x2="850" y2="192.67"/><text class="tick" x="72" y="196.67" text-anchor="end">1e4</text><line class="grid" x1="82" y1="133.33" x2="850" y2="133.33"/><text class="tick" x="72" y="137.33" text-anchor="end">1e5</text><line class="grid" x1="82" y1="74" x2="850" y2="74"/><text class="tick" x="72" y="78" text-anchor="end">1e6</text><line class="axis" x1="82" y1="430" x2="850" y2="430"/><line class="axis" x1="82" y1="74" x2="82" y2="430"/><text class="label" x="466" y="494" text-anchor="middle">Decimal digits</text><text class="label" transform="translate(22 254) rotate(-90)" text-anchor="middle">Terms / iterations (log)</text><path d="M82 363.91 L338 360.22 L594 356.99 L850 354.13" fill="none" stroke="#9333ea" stroke-width="2.8" stroke-linejoin="round" stroke-linecap="round"/><circle cx="82" cy="363.91" r="4.2" fill="#9333ea" stroke="#fff" stroke-width="1.4"/><circle cx="338" cy="360.22" r="4.2" fill="#9333ea" stroke="#fff" stroke-width="1.4"/><circle cx="594" cy="356.99" r="4.2" fill="#9333ea" stroke="#fff" stroke-width="1.4"/><circle cx="850" cy="354.13" r="4.2" fill="#9333ea" stroke="#fff" stroke-width="1.4"/><circle cx="680" cy="92" r="4" fill="#9333ea"/><text class="legend" x="692" y="96">Borwein cubic</text><path d="M82 379.86 L338 376.42 L594 370.67 L850 368.21" fill="none" stroke="#7c3aed" stroke-width="2.8" stroke-linejoin="round" stroke-linecap="round"/><circle cx="82" cy="379.86" r="4.2" fill="#7c3aed" stroke="#fff" stroke-width="1.4"/><circle cx="338" cy="376.42" r="4.2" fill="#7c3aed" stroke="#fff" stroke-width="1.4"/><circle cx="594" cy="370.67" r="4.2" fill="#7c3aed" stroke="#fff" stroke-width="1.4"/><circle cx="850" cy="368.21" r="4.2" fill="#7c3aed" stroke="#fff" stroke-width="1.4"/><circle cx="680" cy="114" r="4" fill="#7c3aed"/><text class="legend" x="692" y="118">Borwein quartic</text><path d="M82 316.13 L338 260.57 L594 201.62 L850 142.33" fill="none" stroke="#2155d9" stroke-width="2.8" stroke-linejoin="round" stroke-linecap="round"/><circle cx="82" cy="316.13" r="4.2" fill="#2155d9" stroke="#fff" stroke-width="1.4"/><circle cx="338" cy="260.57" r="4.2" fill="#2155d9" stroke="#fff" stroke-width="1.4"/><circle cx="594" cy="201.62" r="4.2" fill="#2155d9" stroke="#fff" stroke-width="1.4"/><circle cx="850" cy="142.33" r="4.2" fill="#2155d9" stroke="#fff" stroke-width="1.4"/><circle cx="680" cy="136" r="4" fill="#2155d9"/><text class="legend" x="692" y="140">Chudnovsky BS</text><path d="M82 316.13 L338 260.57 L594 201.62 L850 142.33" fill="none" stroke="#0891b2" stroke-width="2.8" stroke-linejoin="round" stroke-linecap="round"/><circle cx="82" cy="316.13" r="4.2" fill="#0891b2" stroke="#fff" stroke-width="1.4"/><circle cx="338" cy="260.57" r="4.2" fill="#0891b2" stroke="#fff" stroke-width="1.4"/><circle cx="594" cy="201.62" r="4.2" fill="#0891b2" stroke="#fff" stroke-width="1.4"/><circle cx="850" cy="142.33" r="4.2" fill="#0891b2" stroke="#fff" stroke-width="1.4"/><circle cx="680" cy="158" r="4" fill="#0891b2"/><text class="legend" x="692" y="162">Chudnovsky valuation</text><path d="M82 363.91 L338 358.56 L594 354.13" fill="none" stroke="#15803d" stroke-width="2.8" stroke-linejoin="round" stroke-linecap="round"/><circle cx="82" cy="363.91" r="4.2" fill="#15803d" stroke="#fff" stroke-width="1.4"/><circle cx="338" cy="358.56" r="4.2" fill="#15803d" stroke="#fff" stroke-width="1.4"/><circle cx="594" cy="354.13" r="4.2" fill="#15803d" stroke="#fff" stroke-width="1.4"/><circle cx="680" cy="180" r="4" fill="#15803d"/><text class="legend" x="692" y="184">AGM</text><path d="M82 256.96 L338 200.91 L594 141.93" fill="none" stroke="#b45309" stroke-width="2.8" stroke-linejoin="round" stroke-linecap="round"/><circle cx="82" cy="256.96" r="4.2" fill="#b45309" stroke="#fff" stroke-width="1.4"/><circle cx="338" cy="200.91" r="4.2" fill="#b45309" stroke="#fff" stroke-width="1.4"/><circle cx="594" cy="141.93" r="4.2" fill="#b45309" stroke="#fff" stroke-width="1.4"/><circle cx="680" cy="202" r="4" fill="#b45309"/><text class="legend" x="692" y="206">Machin arctan</text><path d="M82 300.37 L338 245.64 L594 186.8 L850 127.52" fill="none" stroke="#c2410c" stroke-width="2.8" stroke-linejoin="round" stroke-linecap="round"/><circle cx="82" cy="300.37" r="4.2" fill="#c2410c" stroke="#fff" stroke-width="1.4"/><circle cx="338" cy="245.64" r="4.2" fill="#c2410c" stroke="#fff" stroke-width="1.4"/><circle cx="594" cy="186.8" r="4.2" fill="#c2410c" stroke="#fff" stroke-width="1.4"/><circle cx="850" cy="127.52" r="4.2" fill="#c2410c" stroke="#fff" stroke-width="1.4"/><circle cx="680" cy="224" r="4" fill="#c2410c"/><text class="legend" x="692" y="228">Ramanujan BS</text></svg>