<svg xmlns="http://www.w3.org/2000/svg" viewBox="0 0 960 540" role="img" aria-labelledby="title desc"><title id="title">Terms or iterations by precision</title><desc id="desc">Series methods report terms; AGM reports iterations.</desc><style>text{font-family:-apple-system,BlinkMacSystemFont,'Segoe UI',sans-serif}.title{font-size:22px;font-weight:700;fill:#111827}.subtitle{font-size:12px;fill:#64748b}.axis{stroke:#1f2937;stroke-width:1.4}.grid{stroke:#d7dde8;stroke-width:1}.tick{font-size:11px;fill:#64748b}.label{font-size:12px;fill:#111827}.legend{font-size:12px;fill:#111827}</style><rect width="960" height="540" fill="#fff"/><text class="title" x="40" y="38">Terms or iterations by precision</text><text class="subtitle" x="40" y="58">Series methods report terms; AGM reports iterations.</text><line class="grid" x1="82" y1="74" x2="82" y2="430"/><text class="tick" x="82" y="454" text-anchor="middle">1e3</text><line class="grid" x1="338" y1="74" x2="338" y2="430"/><text class="tick" x="338" y="454" text-anchor="middle">1e4</text><line class="grid" x1="594" y1="74" x2="594" y2="430"/><text class="tick" x="594" y="454" text-anchor="middle">1e5</text><line class="grid" x1="850" y1="74" x2="850" y2="430"/><text class="tick" x="850" y="454" text-anchor="middle">1e6</text><line class="grid" x1="82" y1="430" x2="850" y2="430"/><text class="tick" x="72" y="434" text-anchor="end">1e0</text><line class="grid" x1="82" y1="358.8" x2="850" y2="358.8"/><text class="tick" x="72" y="362.8" text-anchor="end">1e1</text><line class="grid" x1="82" y1="287.6" x2="850" y2="287.6"/><text class="tick" x="72" y="291.6" text-anchor="end">1e2</text><line class="grid" x1="82" y1="216.4" x2="850" y2="216.4"/><text class="tick" x="72" y="220.4" text-anchor="end">1e3</text><line class="grid" x1="82" y1="145.2" x2="850" y2="145.2"/><text class="tick" x="72" y="149.2" text-anchor="end">1e4</text><line class="grid" x1="82" y1="74" x2="850" y2="74"/><text class="tick" x="72" y="78" text-anchor="end">1e5</text><line class="axis" x1="82" y1="430" x2="850" y2="430"/><line class="axis" x1="82" y1="74" x2="82" y2="430"/><text class="label" x="466" y="494" text-anchor="middle">Decimal digits</text><text class="label" transform="translate(22 254) rotate(-90)" text-anchor="middle">Terms / iterations (log)</text><path d="M82 369.83 L338 365.7 L594 358.8 L850 355.85" fill="none" stroke="#7c3aed" stroke-width="2.8" stroke-linejoin="round" stroke-linecap="round"/><circle cx="82" cy="369.83" r="4.2" fill="#7c3aed" stroke="#fff" stroke-width="1.4"/><circle cx="338" cy="365.7" r="4.2" fill="#7c3aed" stroke="#fff" stroke-width="1.4"/><circle cx="594" cy="358.8" r="4.2" fill="#7c3aed" stroke="#fff" stroke-width="1.4"/><circle cx="850" cy="355.85" r="4.2" fill="#7c3aed" stroke="#fff" stroke-width="1.4"/><circle cx="680" cy="92" r="4" fill="#7c3aed"/><text class="legend" x="692" y="96">Borwein quartic</text><path d="M82 293.36 L338 226.69 L594 155.95 L850 84.8" fill="none" stroke="#2155d9" stroke-width="2.8" stroke-linejoin="round" stroke-linecap="round"/><circle cx="82" cy="293.36" r="4.2" fill="#2155d9" stroke="#fff" stroke-width="1.4"/><circle cx="338" cy="226.69" r="4.2" fill="#2155d9" stroke="#fff" stroke-width="1.4"/><circle cx="594" cy="155.95" r="4.2" fill="#2155d9" stroke="#fff" stroke-width="1.4"/><circle cx="850" cy="84.8" r="4.2" fill="#2155d9" stroke="#fff" stroke-width="1.4"/><circle cx="680" cy="114" r="4" fill="#2155d9"/><text class="legend" x="692" y="118">Chudnovsky BS</text><path d="M82 350.69 L338 344.27 L594 338.95" fill="none" stroke="#15803d" stroke-width="2.8" stroke-linejoin="round" stroke-linecap="round"/><circle cx="82" cy="350.69" r="4.2" fill="#15803d" stroke="#fff" stroke-width="1.4"/><circle cx="338" cy="344.27" r="4.2" fill="#15803d" stroke="#fff" stroke-width="1.4"/><circle cx="594" cy="338.95" r="4.2" fill="#15803d" stroke="#fff" stroke-width="1.4"/><circle cx="680" cy="136" r="4" fill="#15803d"/><text class="legend" x="692" y="140">AGM</text><path d="M82 274.45 L338 208.82 L594 138.23" fill="none" stroke="#c2410c" stroke-width="2.8" stroke-linejoin="round" stroke-linecap="round"/><circle cx="82" cy="274.45" r="4.2" fill="#c2410c" stroke="#fff" stroke-width="1.4"/><circle cx="338" cy="208.82" r="4.2" fill="#c2410c" stroke="#fff" stroke-width="1.4"/><circle cx="594" cy="138.23" r="4.2" fill="#c2410c" stroke="#fff" stroke-width="1.4"/><circle cx="680" cy="158" r="4" fill="#c2410c"/><text class="legend" x="692" y="162">Ramanujan BS</text></svg>