<svg xmlns="http://www.w3.org/2000/svg" viewBox="0 0 960 534" role="img" aria-labelledby="title desc"><title id="title">Verification matrix</title><desc id="desc">Supported and verified benchmark runs by algorithm and precision.</desc><style>text{font-family:-apple-system,BlinkMacSystemFont,'Segoe UI',sans-serif}.title{font-size:22px;font-weight:700;fill:#111827}.subtitle{font-size:12px;fill:#64748b}.axis{stroke:#1f2937;stroke-width:1.4}.grid{stroke:#d7dde8;stroke-width:1}.tick{font-size:11px;fill:#64748b}.label{font-size:12px;fill:#111827}.legend{font-size:12px;fill:#111827}</style><rect width="960" height="534" fill="#fff"/><text class="title" x="40" y="38">Verification matrix</text><text class="subtitle" x="40" y="58">Green means supported and verified; gray means outside the v1 precision cap.</text><text class="tick" x="294" y="84" text-anchor="middle">1,000</text><text class="tick" x="422" y="84" text-anchor="middle">10,000</text><text class="tick" x="550" y="84" text-anchor="middle">100,000</text><text class="tick" x="678" y="84" text-anchor="middle">1,000,000</text><text class="label" x="40" y="128">Borwein cubic</text><rect x="230" y="96" width="118" height="40" rx="5" fill="#15803d"/><text x="289" y="124" text-anchor="middle" font-size="12" font-weight="700" fill="#fff">verified</text><rect x="358" y="96" width="118" height="40" rx="5" fill="#15803d"/><text x="417" y="124" text-anchor="middle" font-size="12" font-weight="700" fill="#fff">verified</text><rect x="486" y="96" width="118" height="40" rx="5" fill="#15803d"/><text x="545" y="124" text-anchor="middle" font-size="12" font-weight="700" fill="#fff">verified</text><rect x="614" y="96" width="118" height="40" rx="5" fill="#15803d"/><text x="673" y="124" text-anchor="middle" font-size="12" font-weight="700" fill="#fff">verified</text><text class="label" x="40" y="178">Borwein quartic</text><rect x="230" y="146" width="118" height="40" rx="5" fill="#15803d"/><text x="289" y="174" text-anchor="middle" font-size="12" font-weight="700" fill="#fff">verified</text><rect x="358" y="146" width="118" height="40" rx="5" fill="#15803d"/><text x="417" y="174" text-anchor="middle" font-size="12" font-weight="700" fill="#fff">verified</text><rect x="486" y="146" width="118" height="40" rx="5" fill="#15803d"/><text x="545" y="174" text-anchor="middle" font-size="12" font-weight="700" fill="#fff">verified</text><rect x="614" y="146" width="118" height="40" rx="5" fill="#15803d"/><text x="673" y="174" text-anchor="middle" font-size="12" font-weight="700" fill="#fff">verified</text><text class="label" x="40" y="228">Chudnovsky BS</text><rect x="230" y="196" width="118" height="40" rx="5" fill="#15803d"/><text x="289" y="224" text-anchor="middle" font-size="12" font-weight="700" fill="#fff">verified</text><rect x="358" y="196" width="118" height="40" rx="5" fill="#15803d"/><text x="417" y="224" text-anchor="middle" font-size="12" font-weight="700" fill="#fff">verified</text><rect x="486" y="196" width="118" height="40" rx="5" fill="#15803d"/><text x="545" y="224" text-anchor="middle" font-size="12" font-weight="700" fill="#fff">verified</text><rect x="614" y="196" width="118" height="40" rx="5" fill="#15803d"/><text x="673" y="224" text-anchor="middle" font-size="12" font-weight="700" fill="#fff">verified</text><text class="label" x="40" y="278">Chudnovsky valuation</text><rect x="230" y="246" width="118" height="40" rx="5" fill="#15803d"/><text x="289" y="274" text-anchor="middle" font-size="12" font-weight="700" fill="#fff">verified</text><rect x="358" y="246" width="118" height="40" rx="5" fill="#15803d"/><text x="417" y="274" text-anchor="middle" font-size="12" font-weight="700" fill="#fff">verified</text><rect x="486" y="246" width="118" height="40" rx="5" fill="#15803d"/><text x="545" y="274" text-anchor="middle" font-size="12" font-weight="700" fill="#fff">verified</text><rect x="614" y="246" width="118" height="40" rx="5" fill="#15803d"/><text x="673" y="274" text-anchor="middle" font-size="12" font-weight="700" fill="#fff">verified</text><text class="label" x="40" y="328">AGM</text><rect x="230" y="296" width="118" height="40" rx="5" fill="#15803d"/><text x="289" y="324" text-anchor="middle" font-size="12" font-weight="700" fill="#fff">verified</text><rect x="358" y="296" width="118" height="40" rx="5" fill="#15803d"/><text x="417" y="324" text-anchor="middle" font-size="12" font-weight="700" fill="#fff">verified</text><rect x="486" y="296" width="118" height="40" rx="5" fill="#15803d"/><text x="545" y="324" text-anchor="middle" font-size="12" font-weight="700" fill="#fff">verified</text><rect x="614" y="296" width="118" height="40" rx="5" fill="#94a3b8"/><text x="673" y="324" text-anchor="middle" font-size="12" font-weight="700" fill="#fff">skipped</text><text class="label" x="40" y="378">Machin arctan</text><rect x="230" y="346" width="118" height="40" rx="5" fill="#15803d"/><text x="289" y="374" text-anchor="middle" font-size="12" font-weight="700" fill="#fff">verified</text><rect x="358" y="346" width="118" height="40" rx="5" fill="#15803d"/><text x="417" y="374" text-anchor="middle" font-size="12" font-weight="700" fill="#fff">verified</text><rect x="486" y="346" width="118" height="40" rx="5" fill="#15803d"/><text x="545" y="374" text-anchor="middle" font-size="12" font-weight="700" fill="#fff">verified</text><rect x="614" y="346" width="118" height="40" rx="5" fill="#94a3b8"/><text x="673" y="374" text-anchor="middle" font-size="12" font-weight="700" fill="#fff">skipped</text><text class="label" x="40" y="428">Ramanujan BS</text><rect x="230" y="396" width="118" height="40" rx="5" fill="#15803d"/><text x="289" y="424" text-anchor="middle" font-size="12" font-weight="700" fill="#fff">verified</text><rect x="358" y="396" width="118" height="40" rx="5" fill="#15803d"/><text x="417" y="424" text-anchor="middle" font-size="12" font-weight="700" fill="#fff">verified</text><rect x="486" y="396" width="118" height="40" rx="5" fill="#15803d"/><text x="545" y="424" text-anchor="middle" font-size="12" font-weight="700" fill="#fff">verified</text><rect x="614" y="396" width="118" height="40" rx="5" fill="#15803d"/><text x="673" y="424" text-anchor="middle" font-size="12" font-weight="700" fill="#fff">verified</text><rect x="40" y="484" width="16" height="16" rx="3" fill="#15803d"/><text class="legend" x="64" y="497">verified</text><rect x="190" y="484" width="16" height="16" rx="3" fill="#94a3b8"/><text class="legend" x="214" y="497">unsupported</text><rect x="340" y="484" width="16" height="16" rx="3" fill="#b91c1c"/><text class="legend" x="364" y="497">failed</text></svg>