<svg xmlns="http://www.w3.org/2000/svg" viewBox="0 0 960 460" role="img" aria-labelledby="title desc"><title id="title">Verification matrix</title><desc id="desc">Supported and verified benchmark runs by algorithm and precision.</desc><style>text{font-family:-apple-system,BlinkMacSystemFont,'Segoe UI',sans-serif}.title{font-size:22px;font-weight:700;fill:#111827}.subtitle{font-size:12px;fill:#64748b}.axis{stroke:#1f2937;stroke-width:1.4}.grid{stroke:#d7dde8;stroke-width:1}.tick{font-size:11px;fill:#64748b}.label{font-size:12px;fill:#111827}.legend{font-size:12px;fill:#111827}</style><rect width="960" height="460" fill="#fff"/><text class="title" x="40" y="38">Verification matrix</text><text class="subtitle" x="40" y="58">Green means supported and verified; gray means outside the v1 precision cap.</text><text class="tick" x="294" y="84" text-anchor="middle">1,000</text><text class="tick" x="422" y="84" text-anchor="middle">10,000</text><text class="tick" x="550" y="84" text-anchor="middle">100,000</text><text class="tick" x="678" y="84" text-anchor="middle">1,000,000</text><text class="label" x="40" y="128">Borwein quartic</text><rect x="230" y="96" width="118" height="44" rx="5" fill="#15803d"/><text x="289" y="124" text-anchor="middle" font-size="12" font-weight="700" fill="#fff">verified</text><rect x="358" y="96" width="118" height="44" rx="5" fill="#15803d"/><text x="417" y="124" text-anchor="middle" font-size="12" font-weight="700" fill="#fff">verified</text><rect x="486" y="96" width="118" height="44" rx="5" fill="#15803d"/><text x="545" y="124" text-anchor="middle" font-size="12" font-weight="700" fill="#fff">verified</text><rect x="614" y="96" width="118" height="44" rx="5" fill="#15803d"/><text x="673" y="124" text-anchor="middle" font-size="12" font-weight="700" fill="#fff">verified</text><text class="label" x="40" y="182">Chudnovsky BS</text><rect x="230" y="150" width="118" height="44" rx="5" fill="#15803d"/><text x="289" y="178" text-anchor="middle" font-size="12" font-weight="700" fill="#fff">verified</text><rect x="358" y="150" width="118" height="44" rx="5" fill="#15803d"/><text x="417" y="178" text-anchor="middle" font-size="12" font-weight="700" fill="#fff">verified</text><rect x="486" y="150" width="118" height="44" rx="5" fill="#15803d"/><text x="545" y="178" text-anchor="middle" font-size="12" font-weight="700" fill="#fff">verified</text><rect x="614" y="150" width="118" height="44" rx="5" fill="#15803d"/><text x="673" y="178" text-anchor="middle" font-size="12" font-weight="700" fill="#fff">verified</text><text class="label" x="40" y="236">AGM</text><rect x="230" y="204" width="118" height="44" rx="5" fill="#15803d"/><text x="289" y="232" text-anchor="middle" font-size="12" font-weight="700" fill="#fff">verified</text><rect x="358" y="204" width="118" height="44" rx="5" fill="#15803d"/><text x="417" y="232" text-anchor="middle" font-size="12" font-weight="700" fill="#fff">verified</text><rect x="486" y="204" width="118" height="44" rx="5" fill="#15803d"/><text x="545" y="232" text-anchor="middle" font-size="12" font-weight="700" fill="#fff">verified</text><rect x="614" y="204" width="118" height="44" rx="5" fill="#94a3b8"/><text x="673" y="232" text-anchor="middle" font-size="12" font-weight="700" fill="#fff">skipped</text><text class="label" x="40" y="290">Ramanujan BS</text><rect x="230" y="258" width="118" height="44" rx="5" fill="#15803d"/><text x="289" y="286" text-anchor="middle" font-size="12" font-weight="700" fill="#fff">verified</text><rect x="358" y="258" width="118" height="44" rx="5" fill="#15803d"/><text x="417" y="286" text-anchor="middle" font-size="12" font-weight="700" fill="#fff">verified</text><rect x="486" y="258" width="118" height="44" rx="5" fill="#15803d"/><text x="545" y="286" text-anchor="middle" font-size="12" font-weight="700" fill="#fff">verified</text><rect x="614" y="258" width="118" height="44" rx="5" fill="#94a3b8"/><text x="673" y="286" text-anchor="middle" font-size="12" font-weight="700" fill="#fff">skipped</text><rect x="40" y="350" width="16" height="16" rx="3" fill="#15803d"/><text class="legend" x="64" y="363">verified</text><rect x="190" y="350" width="16" height="16" rx="3" fill="#94a3b8"/><text class="legend" x="214" y="363">unsupported</text><rect x="340" y="350" width="16" height="16" rx="3" fill="#b91c1c"/><text class="legend" x="364" y="363">failed</text></svg>