<svg xmlns="http://www.w3.org/2000/svg" viewBox="0 0 1040 548" role="img" aria-labelledby="title desc"><title id="title">Verification matrix</title><desc id="desc">Supported and verified benchmark runs by algorithm and precision.</desc><style>text{font-family:-apple-system,BlinkMacSystemFont,'Segoe UI',sans-serif}.title{font-size:22px;font-weight:700;fill:#111827}.subtitle{font-size:13px;fill:#64748b}.axis{stroke:#1f2937;stroke-width:1.5}.grid{stroke:#e2e8f0;stroke-width:1}.tick{font-size:12px;fill:#64748b}.label{font-size:13px;font-weight:600;fill:#111827}.legend{font-size:13px;fill:#111827}.legend-box{fill:#f8fafc;stroke:#e2e8f0;stroke-width:1}.refline{stroke:#94a3b8;stroke-width:1.5;stroke-dasharray:6 4}</style><rect width="1040" height="548" fill="#fff"/><text class="title" x="40" y="38">Verification matrix</text><text class="subtitle" x="40" y="58">Green = supported and verified; gray = unsupported cap; red = failed.</text><text class="label" x="632" y="84" text-anchor="middle">Decimal digits</text><text class="tick" x="332" y="104" text-anchor="middle">1,000</text><text class="tick" x="452" y="104" text-anchor="middle">10,000</text><text class="tick" x="572" y="104" text-anchor="middle">100,000</text><text class="tick" x="692" y="104" text-anchor="middle">10^6</text><text class="tick" x="812" y="104" text-anchor="middle">10^7</text><text class="tick" x="932" y="104" text-anchor="middle">10^8</text><text class="label" x="240" y="130" text-anchor="end">FLINT/Arb const_pi</text><rect x="278" y="104" width="108" height="36" rx="6" fill="#94a3b8"/><text x="332" y="127" text-anchor="middle" font-size="13" font-weight="700" fill="#fff">skip</text><rect x="398" y="104" width="108" height="36" rx="6" fill="#15803d"/><text x="452" y="127" text-anchor="middle" font-size="13" font-weight="700" fill="#fff">OK</text><rect x="518" y="104" width="108" height="36" rx="6" fill="#15803d"/><text x="572" y="127" text-anchor="middle" font-size="13" font-weight="700" fill="#fff">OK</text><rect x="638" y="104" width="108" height="36" rx="6" fill="#15803d"/><text x="692" y="127" text-anchor="middle" font-size="13" font-weight="700" fill="#fff">OK</text><rect x="758" y="104" width="108" height="36" rx="6" fill="#94a3b8"/><text x="812" y="127" text-anchor="middle" font-size="13" font-weight="700" fill="#fff">skip</text><rect x="878" y="104" width="108" height="36" rx="6" fill="#94a3b8"/><text x="932" y="127" text-anchor="middle" font-size="13" font-weight="700" fill="#fff">skip</text><text class="label" x="240" y="174" text-anchor="end">Chudnovsky BS</text><rect x="278" y="148" width="108" height="36" rx="6" fill="#15803d"/><text x="332" y="171" text-anchor="middle" font-size="13" font-weight="700" fill="#fff">OK</text><rect x="398" y="148" width="108" height="36" rx="6" fill="#15803d"/><text x="452" y="171" text-anchor="middle" font-size="13" font-weight="700" fill="#fff">OK</text><rect x="518" y="148" width="108" height="36" rx="6" fill="#15803d"/><text x="572" y="171" text-anchor="middle" font-size="13" font-weight="700" fill="#fff">OK</text><rect x="638" y="148" width="108" height="36" rx="6" fill="#15803d"/><text x="692" y="171" text-anchor="middle" font-size="13" font-weight="700" fill="#fff">OK</text><rect x="758" y="148" width="108" height="36" rx="6" fill="#15803d"/><text x="812" y="171" text-anchor="middle" font-size="13" font-weight="700" fill="#fff">OK</text><rect x="878" y="148" width="108" height="36" rx="6" fill="#94a3b8"/><text x="932" y="171" text-anchor="middle" font-size="13" font-weight="700" fill="#fff">skip</text><text class="label" x="240" y="218" text-anchor="end">Truncated crown (ours)</text><rect x="278" y="192" width="108" height="36" rx="6" fill="#94a3b8"/><text x="332" y="215" text-anchor="middle" font-size="13" font-weight="700" fill="#fff">skip</text><rect x="398" y="192" width="108" height="36" rx="6" fill="#15803d"/><text x="452" y="215" text-anchor="middle" font-size="13" font-weight="700" fill="#fff">OK</text><rect x="518" y="192" width="108" height="36" rx="6" fill="#15803d"/><text x="572" y="215" text-anchor="middle" font-size="13" font-weight="700" fill="#fff">OK</text><rect x="638" y="192" width="108" height="36" rx="6" fill="#15803d"/><text x="692" y="215" text-anchor="middle" font-size="13" font-weight="700" fill="#fff">OK</text><rect x="758" y="192" width="108" height="36" rx="6" fill="#15803d"/><text x="812" y="215" text-anchor="middle" font-size="13" font-weight="700" fill="#fff">OK</text><rect x="878" y="192" width="108" height="36" rx="6" fill="#b91c1c"/><text x="932" y="215" text-anchor="middle" font-size="13" font-weight="700" fill="#fff">fail</text><text class="label" x="240" y="262" text-anchor="end">Chudnovsky valuation</text><rect x="278" y="236" width="108" height="36" rx="6" fill="#94a3b8"/><text x="332" y="259" text-anchor="middle" font-size="13" font-weight="700" fill="#fff">skip</text><rect x="398" y="236" width="108" height="36" rx="6" fill="#15803d"/><text x="452" y="259" text-anchor="middle" font-size="13" font-weight="700" fill="#fff">OK</text><rect x="518" y="236" width="108" height="36" rx="6" fill="#15803d"/><text x="572" y="259" text-anchor="middle" font-size="13" font-weight="700" fill="#fff">OK</text><rect x="638" y="236" width="108" height="36" rx="6" fill="#15803d"/><text x="692" y="259" text-anchor="middle" font-size="13" font-weight="700" fill="#fff">OK</text><rect x="758" y="236" width="108" height="36" rx="6" fill="#94a3b8"/><text x="812" y="259" text-anchor="middle" font-size="13" font-weight="700" fill="#fff">skip</text><rect x="878" y="236" width="108" height="36" rx="6" fill="#94a3b8"/><text x="932" y="259" text-anchor="middle" font-size="13" font-weight="700" fill="#fff">skip</text><text class="label" x="240" y="306" text-anchor="end">Chudnovsky naive</text><rect x="278" y="280" width="108" height="36" rx="6" fill="#15803d"/><text x="332" y="303" text-anchor="middle" font-size="13" font-weight="700" fill="#fff">OK</text><rect x="398" y="280" width="108" height="36" rx="6" fill="#15803d"/><text x="452" y="303" text-anchor="middle" font-size="13" font-weight="700" fill="#fff">OK</text><rect x="518" y="280" width="108" height="36" rx="6" fill="#15803d"/><text x="572" y="303" text-anchor="middle" font-size="13" font-weight="700" fill="#fff">OK</text><rect x="638" y="280" width="108" height="36" rx="6" fill="#94a3b8"/><text x="692" y="303" text-anchor="middle" font-size="13" font-weight="700" fill="#fff">skip</text><rect x="758" y="280" width="108" height="36" rx="6" fill="#94a3b8"/><text x="812" y="303" text-anchor="middle" font-size="13" font-weight="700" fill="#fff">skip</text><rect x="878" y="280" width="108" height="36" rx="6" fill="#94a3b8"/><text x="932" y="303" text-anchor="middle" font-size="13" font-weight="700" fill="#fff">skip</text><text class="label" x="240" y="350" text-anchor="end">Chudnovsky recurrence</text><rect x="278" y="324" width="108" height="36" rx="6" fill="#15803d"/><text x="332" y="347" text-anchor="middle" font-size="13" font-weight="700" fill="#fff">OK</text><rect x="398" y="324" width="108" height="36" rx="6" fill="#15803d"/><text x="452" y="347" text-anchor="middle" font-size="13" font-weight="700" fill="#fff">OK</text><rect x="518" y="324" width="108" height="36" rx="6" fill="#94a3b8"/><text x="572" y="347" text-anchor="middle" font-size="13" font-weight="700" fill="#fff">skip</text><rect x="638" y="324" width="108" height="36" rx="6" fill="#94a3b8"/><text x="692" y="347" text-anchor="middle" font-size="13" font-weight="700" fill="#fff">skip</text><rect x="758" y="324" width="108" height="36" rx="6" fill="#94a3b8"/><text x="812" y="347" text-anchor="middle" font-size="13" font-weight="700" fill="#fff">skip</text><rect x="878" y="324" width="108" height="36" rx="6" fill="#94a3b8"/><text x="932" y="347" text-anchor="middle" font-size="13" font-weight="700" fill="#fff">skip</text><text class="label" x="240" y="394" text-anchor="end">MPFR const_pi</text><rect x="278" y="368" width="108" height="36" rx="6" fill="#94a3b8"/><text x="332" y="391" text-anchor="middle" font-size="13" font-weight="700" fill="#fff">skip</text><rect x="398" y="368" width="108" height="36" rx="6" fill="#15803d"/><text x="452" y="391" text-anchor="middle" font-size="13" font-weight="700" fill="#fff">OK</text><rect x="518" y="368" width="108" height="36" rx="6" fill="#15803d"/><text x="572" y="391" text-anchor="middle" font-size="13" font-weight="700" fill="#fff">OK</text><rect x="638" y="368" width="108" height="36" rx="6" fill="#15803d"/><text x="692" y="391" text-anchor="middle" font-size="13" font-weight="700" fill="#fff">OK</text><rect x="758" y="368" width="108" height="36" rx="6" fill="#94a3b8"/><text x="812" y="391" text-anchor="middle" font-size="13" font-weight="700" fill="#fff">skip</text><rect x="878" y="368" width="108" height="36" rx="6" fill="#94a3b8"/><text x="932" y="391" text-anchor="middle" font-size="13" font-weight="700" fill="#fff">skip</text><text class="label" x="240" y="438" text-anchor="end">Ramanujan BS</text><rect x="278" y="412" width="108" height="36" rx="6" fill="#94a3b8"/><text x="332" y="435" text-anchor="middle" font-size="13" font-weight="700" fill="#fff">skip</text><rect x="398" y="412" width="108" height="36" rx="6" fill="#15803d"/><text x="452" y="435" text-anchor="middle" font-size="13" font-weight="700" fill="#fff">OK</text><rect x="518" y="412" width="108" height="36" rx="6" fill="#15803d"/><text x="572" y="435" text-anchor="middle" font-size="13" font-weight="700" fill="#fff">OK</text><rect x="638" y="412" width="108" height="36" rx="6" fill="#15803d"/><text x="692" y="435" text-anchor="middle" font-size="13" font-weight="700" fill="#fff">OK</text><rect x="758" y="412" width="108" height="36" rx="6" fill="#94a3b8"/><text x="812" y="435" text-anchor="middle" font-size="13" font-weight="700" fill="#fff">skip</text><rect x="878" y="412" width="108" height="36" rx="6" fill="#94a3b8"/><text x="932" y="435" text-anchor="middle" font-size="13" font-weight="700" fill="#fff">skip</text><rect class="legend-box" x="36" y="472" width="968" height="36" rx="8"/><rect x="56" y="482" width="18" height="18" rx="4" fill="#15803d"/><text class="legend" x="84" y="496">verified</text><rect x="236" y="482" width="18" height="18" rx="4" fill="#94a3b8"/><text class="legend" x="264" y="496">unsupported</text><rect x="416" y="482" width="18" height="18" rx="4" fill="#b91c1c"/><text class="legend" x="444" y="496">failed</text></svg>