<svg xmlns="http://www.w3.org/2000/svg" viewBox="0 0 1002 670" role="img" aria-labelledby="title desc"><title id="title">Wall time by precision</title><desc id="desc">Verified full-prefix runs only; logarithmic axes expose growth across scales.</desc><style>text{font-family:-apple-system,BlinkMacSystemFont,'Segoe UI',sans-serif}.title{font-size:22px;font-weight:700;fill:#111827}.subtitle{font-size:13px;fill:#64748b}.axis{stroke:#1f2937;stroke-width:1.5}.grid{stroke:#e2e8f0;stroke-width:1}.tick{font-size:12px;fill:#64748b}.label{font-size:13px;font-weight:600;fill:#111827}.legend{font-size:13px;fill:#111827}.legend-box{fill:#f8fafc;stroke:#e2e8f0;stroke-width:1}.refline{stroke:#94a3b8;stroke-width:1.5;stroke-dasharray:6 4}</style><rect width="1002" height="670" fill="#fff"/><text class="title" x="40" y="38">Wall time by precision</text><text class="subtitle" x="40" y="58">Verified full-prefix runs only; logarithmic axes expose growth across scales.</text><line class="grid" x1="82" y1="74" x2="82" y2="454"/><text class="tick" x="82" y="476" text-anchor="middle">1,000</text><line class="grid" x1="258" y1="74" x2="258" y2="454"/><text class="tick" x="258" y="476" text-anchor="middle">10^4</text><line class="grid" x1="434" y1="74" x2="434" y2="454"/><text class="tick" x="434" y="476" text-anchor="middle">10^5</text><line class="grid" x1="610" y1="74" x2="610" y2="454"/><text class="tick" x="610" y="476" text-anchor="middle">10^6</text><line class="grid" x1="786" y1="74" x2="786" y2="454"/><text class="tick" x="786" y="476" text-anchor="middle">10^7</text><line class="grid" x1="962" y1="74" x2="962" y2="454"/><text class="tick" x="962" y="476" text-anchor="middle">10^8</text><line class="grid" x1="82" y1="454" x2="962" y2="454"/><text class="tick" x="72" y="458" text-anchor="end">1e-1</text><line class="grid" x1="82" y1="390.67" x2="962" y2="390.67"/><text class="tick" x="72" y="394.67" text-anchor="end">1e0</text><line class="grid" x1="82" y1="327.33" x2="962" y2="327.33"/><text class="tick" x="72" y="331.33" text-anchor="end">1e1</text><line class="grid" x1="82" y1="264" x2="962" y2="264"/><text class="tick" x="72" y="268" text-anchor="end">1e2</text><line class="grid" x1="82" y1="200.67" x2="962" y2="200.67"/><text class="tick" x="72" y="204.67" text-anchor="end">1e3</text><line class="grid" x1="82" y1="137.33" x2="962" y2="137.33"/><text class="tick" x="72" y="141.33" text-anchor="end">1e4</text><line class="grid" x1="82" y1="74" x2="962" y2="74"/><text class="tick" x="72" y="78" text-anchor="end">1e5</text><line class="axis" x1="82" y1="454" x2="962" y2="454"/><line class="axis" x1="82" y1="74" x2="82" y2="454"/><text class="label" x="522" y="498" text-anchor="middle">Decimal digits</text><text class="label" transform="translate(24 264) rotate(-90)" text-anchor="middle">Wall time (ms, log)</text><path d="M258 381.65 L434 325.49 L610 262.52 L786 188.28" fill="none" stroke="#0f766e" stroke-width="3" stroke-linejoin="round" stroke-linecap="round"/><circle cx="258" cy="381.65" r="5" fill="#0f766e" stroke="#fff" stroke-width="1.8"/><circle cx="434" cy="325.49" r="5" fill="#0f766e" stroke="#fff" stroke-width="1.8"/><circle cx="610" cy="262.52" r="5" fill="#0f766e" stroke="#fff" stroke-width="1.8"/><circle cx="786" cy="188.28" r="5" fill="#0f766e" stroke="#fff" stroke-width="1.8"/><path d="M82 448.76 L258 379.37 L434 282.56 L610 218.05 L786 152.57 L962 75.7" fill="none" stroke="#2155d9" stroke-width="3" stroke-linejoin="round" stroke-linecap="round"/><circle cx="82" cy="448.76" r="5" fill="#2155d9" stroke="#fff" stroke-width="1.8"/><circle cx="258" cy="379.37" r="5" fill="#2155d9" stroke="#fff" stroke-width="1.8"/><circle cx="434" cy="282.56" r="5" fill="#2155d9" stroke="#fff" stroke-width="1.8"/><circle cx="610" cy="218.05" r="5" fill="#2155d9" stroke="#fff" stroke-width="1.8"/><circle cx="786" cy="152.57" r="5" fill="#2155d9" stroke="#fff" stroke-width="1.8"/><circle cx="962" cy="75.7" r="5" fill="#2155d9" stroke="#fff" stroke-width="1.8"/><path d="M258 400.32 L434 310.27 L610 268.42 L786 184.96" fill="none" stroke="#dc2626" stroke-width="3" stroke-linejoin="round" stroke-linecap="round"/><circle cx="258" cy="400.32" r="5" fill="#dc2626" stroke="#fff" stroke-width="1.8"/><circle cx="434" cy="310.27" r="5" fill="#dc2626" stroke="#fff" stroke-width="1.8"/><circle cx="610" cy="268.42" r="5" fill="#dc2626" stroke="#fff" stroke-width="1.8"/><circle cx="786" cy="184.96" r="5" fill="#dc2626" stroke="#fff" stroke-width="1.8"/><circle cx="610" cy="268.48" r="5" fill="#6d28d9" stroke="#fff" stroke-width="1.8"/><path d="M258 379.9 L434 292.34 L610 232.38 L786 153.36" fill="none" stroke="#0891b2" stroke-width="3" stroke-linejoin="round" stroke-linecap="round"/><circle cx="258" cy="379.9" r="5" fill="#0891b2" stroke="#fff" stroke-width="1.8"/><circle cx="434" cy="292.34" r="5" fill="#0891b2" stroke="#fff" stroke-width="1.8"/><circle cx="610" cy="232.38" r="5" fill="#0891b2" stroke="#fff" stroke-width="1.8"/><circle cx="786" cy="153.36" r="5" fill="#0891b2" stroke="#fff" stroke-width="1.8"/><path d="M434 338.33 L610 269.27" fill="none" stroke="#be123c" stroke-width="3" stroke-linejoin="round" stroke-linecap="round"/><circle cx="434" cy="338.33" r="5" fill="#be123c" stroke="#fff" stroke-width="1.8"/><circle cx="610" cy="269.27" r="5" fill="#be123c" stroke="#fff" stroke-width="1.8"/><path d="M82 419.07 L258 384.44 L434 270.77" fill="none" stroke="#64748b" stroke-width="3" stroke-linejoin="round" stroke-linecap="round"/><circle cx="82" cy="419.07" r="5" fill="#64748b" stroke="#fff" stroke-width="1.8"/><circle cx="258" cy="384.44" r="5" fill="#64748b" stroke="#fff" stroke-width="1.8"/><circle cx="434" cy="270.77" r="5" fill="#64748b" stroke="#fff" stroke-width="1.8"/><path d="M82 430.62 L258 383.83" fill="none" stroke="#94a3b8" stroke-width="3" stroke-linejoin="round" stroke-linecap="round"/><circle cx="82" cy="430.62" r="5" fill="#94a3b8" stroke="#fff" stroke-width="1.8"/><circle cx="258" cy="383.83" r="5" fill="#94a3b8" stroke="#fff" stroke-width="1.8"/><path d="M258 398.76 L434 299.95 L610 220.81 L786 140.24" fill="none" stroke="#475569" stroke-width="3" stroke-linejoin="round" stroke-linecap="round"/><circle cx="258" cy="398.76" r="5" fill="#475569" stroke="#fff" stroke-width="1.8"/><circle cx="434" cy="299.95" r="5" fill="#475569" stroke="#fff" stroke-width="1.8"/><circle cx="610" cy="220.81" r="5" fill="#475569" stroke="#fff" stroke-width="1.8"/><circle cx="786" cy="140.24" r="5" fill="#475569" stroke="#fff" stroke-width="1.8"/><path d="M258 386.49 L434 309.4 L610 240.74 L786 160.19" fill="none" stroke="#c2410c" stroke-width="3" stroke-linejoin="round" stroke-linecap="round"/><circle cx="258" cy="386.49" r="5" fill="#c2410c" stroke="#fff" stroke-width="1.8"/><circle cx="434" cy="309.4" r="5" fill="#c2410c" stroke="#fff" stroke-width="1.8"/><circle cx="610" cy="240.74" r="5" fill="#c2410c" stroke="#fff" stroke-width="1.8"/><circle cx="786" cy="160.19" r="5" fill="#c2410c" stroke="#fff" stroke-width="1.8"/><rect class="legend-box" x="82" y="518" width="880" height="136" rx="8"/><line x1="98" y1="541" x2="120" y2="541" stroke="#0f766e" stroke-width="3" stroke-linecap="round"/><circle cx="109" cy="541" r="4.5" fill="#0f766e" stroke="#fff" stroke-width="1.5"/><text class="legend" x="128" y="546">FLINT/Arb const_pi</text><line x1="391.33" y1="541" x2="413.33" y2="541" stroke="#2155d9" stroke-width="3" stroke-linecap="round"/><circle cx="402.33" cy="541" r="4.5" fill="#2155d9" stroke="#fff" stroke-width="1.5"/><text class="legend" x="421.33" y="546">Chudnovsky BS</text><line x1="684.67" y1="541" x2="706.67" y2="541" stroke="#dc2626" stroke-width="3" stroke-linecap="round"/><circle cx="695.67" cy="541" r="4.5" fill="#dc2626" stroke="#fff" stroke-width="1.5"/><text class="legend" x="714.67" y="546">Truncated crown (ours)</text><line x1="98" y1="565" x2="120" y2="565" stroke="#6d28d9" stroke-width="3" stroke-linecap="round"/><circle cx="109" cy="565" r="4.5" fill="#6d28d9" stroke="#fff" stroke-width="1.5"/><text class="legend" x="128" y="570">chudnovsky_bs_crown_h15</text><line x1="391.33" y1="565" x2="413.33" y2="565" stroke="#0891b2" stroke-width="3" stroke-linecap="round"/><circle cx="402.33" cy="565" r="4.5" fill="#0891b2" stroke="#fff" stroke-width="1.5"/><text class="legend" x="421.33" y="570">Chudnovsky valuation</text><line x1="684.67" y1="565" x2="706.67" y2="565" stroke="#be123c" stroke-width="3" stroke-linecap="round"/><circle cx="695.67" cy="565" r="4.5" fill="#be123c" stroke="#fff" stroke-width="1.5"/><text class="legend" x="714.67" y="570">Hybrid router (H14)</text><line x1="98" y1="589" x2="120" y2="589" stroke="#64748b" stroke-width="3" stroke-linecap="round"/><circle cx="109" cy="589" r="4.5" fill="#64748b" stroke="#fff" stroke-width="1.5"/><text class="legend" x="128" y="594">Chudnovsky naive</text><line x1="391.33" y1="589" x2="413.33" y2="589" stroke="#94a3b8" stroke-width="3" stroke-linecap="round"/><circle cx="402.33" cy="589" r="4.5" fill="#94a3b8" stroke="#fff" stroke-width="1.5"/><text class="legend" x="421.33" y="594">Chudnovsky recurrence</text><line x1="684.67" y1="589" x2="706.67" y2="589" stroke="#475569" stroke-width="3" stroke-linecap="round"/><circle cx="695.67" cy="589" r="4.5" fill="#475569" stroke="#fff" stroke-width="1.5"/><text class="legend" x="714.67" y="594">MPFR const_pi</text><line x1="98" y1="613" x2="120" y2="613" stroke="#c2410c" stroke-width="3" stroke-linecap="round"/><circle cx="109" cy="613" r="4.5" fill="#c2410c" stroke="#fff" stroke-width="1.5"/><text class="legend" x="128" y="618">Ramanujan BS</text></svg>