<svg xmlns="http://www.w3.org/2000/svg" viewBox="0 0 960 540" role="img" aria-labelledby="title desc"><title id="title">Wall time by precision</title><desc id="desc">Verified full-prefix runs only; logarithmic axes expose growth across scales.</desc><style>text{font-family:-apple-system,BlinkMacSystemFont,'Segoe UI',sans-serif}.title{font-size:22px;font-weight:700;fill:#111827}.subtitle{font-size:12px;fill:#64748b}.axis{stroke:#1f2937;stroke-width:1.4}.grid{stroke:#d7dde8;stroke-width:1}.tick{font-size:11px;fill:#64748b}.label{font-size:12px;fill:#111827}.legend{font-size:12px;fill:#111827}</style><rect width="960" height="540" fill="#fff"/><text class="title" x="40" y="38">Wall time by precision</text><text class="subtitle" x="40" y="58">Verified full-prefix runs only; logarithmic axes expose growth across scales.</text><line class="grid" x1="82" y1="74" x2="82" y2="430"/><text class="tick" x="82" y="454" text-anchor="middle">1e3</text><line class="grid" x1="338" y1="74" x2="338" y2="430"/><text class="tick" x="338" y="454" text-anchor="middle">1e4</text><line class="grid" x1="594" y1="74" x2="594" y2="430"/><text class="tick" x="594" y="454" text-anchor="middle">1e5</text><line class="grid" x1="850" y1="74" x2="850" y2="430"/><text class="tick" x="850" y="454" text-anchor="middle">1e6</text><line class="grid" x1="82" y1="430" x2="850" y2="430"/><text class="tick" x="72" y="434" text-anchor="end">1e-2</text><line class="grid" x1="82" y1="370.67" x2="850" y2="370.67"/><text class="tick" x="72" y="374.67" text-anchor="end">1e-1</text><line class="grid" x1="82" y1="311.33" x2="850" y2="311.33"/><text class="tick" x="72" y="315.33" text-anchor="end">1e0</text><line class="grid" x1="82" y1="252" x2="850" y2="252"/><text class="tick" x="72" y="256" text-anchor="end">1e1</text><line class="grid" x1="82" y1="192.67" x2="850" y2="192.67"/><text class="tick" x="72" y="196.67" text-anchor="end">1e2</text><line class="grid" x1="82" y1="133.33" x2="850" y2="133.33"/><text class="tick" x="72" y="137.33" text-anchor="end">1e3</text><line class="grid" x1="82" y1="74" x2="850" y2="74"/><text class="tick" x="72" y="78" text-anchor="end">1e4</text><line class="axis" x1="82" y1="430" x2="850" y2="430"/><line class="axis" x1="82" y1="74" x2="82" y2="430"/><text class="label" x="466" y="494" text-anchor="middle">Decimal digits</text><text class="label" transform="translate(22 254) rotate(-90)" text-anchor="middle">Wall time (ms, log)</text><path d="M82 371.19 L338 284.04 L594 196.38 L850 126.33" fill="none" stroke="#9333ea" stroke-width="2.8" stroke-linejoin="round" stroke-linecap="round"/><circle cx="82" cy="371.19" r="4.2" fill="#9333ea" stroke="#fff" stroke-width="1.4"/><circle cx="338" cy="284.04" r="4.2" fill="#9333ea" stroke="#fff" stroke-width="1.4"/><circle cx="594" cy="196.38" r="4.2" fill="#9333ea" stroke="#fff" stroke-width="1.4"/><circle cx="850" cy="126.33" r="4.2" fill="#9333ea" stroke="#fff" stroke-width="1.4"/><circle cx="680" cy="92" r="4" fill="#9333ea"/><text class="legend" x="692" y="96">Borwein cubic</text><path d="M82 368.45 L338 283.9 L594 193.54 L850 120.56" fill="none" stroke="#7c3aed" stroke-width="2.8" stroke-linejoin="round" stroke-linecap="round"/><circle cx="82" cy="368.45" r="4.2" fill="#7c3aed" stroke="#fff" stroke-width="1.4"/><circle cx="338" cy="283.9" r="4.2" fill="#7c3aed" stroke="#fff" stroke-width="1.4"/><circle cx="594" cy="193.54" r="4.2" fill="#7c3aed" stroke="#fff" stroke-width="1.4"/><circle cx="850" cy="120.56" r="4.2" fill="#7c3aed" stroke="#fff" stroke-width="1.4"/><circle cx="680" cy="114" r="4" fill="#7c3aed"/><text class="legend" x="692" y="118">Borwein quartic</text><path d="M82 389.58 L338 321.73 L594 237.06 L850 178.71" fill="none" stroke="#2155d9" stroke-width="2.8" stroke-linejoin="round" stroke-linecap="round"/><circle cx="82" cy="389.58" r="4.2" fill="#2155d9" stroke="#fff" stroke-width="1.4"/><circle cx="338" cy="321.73" r="4.2" fill="#2155d9" stroke="#fff" stroke-width="1.4"/><circle cx="594" cy="237.06" r="4.2" fill="#2155d9" stroke="#fff" stroke-width="1.4"/><circle cx="850" cy="178.71" r="4.2" fill="#2155d9" stroke="#fff" stroke-width="1.4"/><circle cx="680" cy="136" r="4" fill="#2155d9"/><text class="legend" x="692" y="140">Chudnovsky BS</text><path d="M82 392.41 L338 321.12 L594 239.31 L850 178.9" fill="none" stroke="#0891b2" stroke-width="2.8" stroke-linejoin="round" stroke-linecap="round"/><circle cx="82" cy="392.41" r="4.2" fill="#0891b2" stroke="#fff" stroke-width="1.4"/><circle cx="338" cy="321.12" r="4.2" fill="#0891b2" stroke="#fff" stroke-width="1.4"/><circle cx="594" cy="239.31" r="4.2" fill="#0891b2" stroke="#fff" stroke-width="1.4"/><circle cx="850" cy="178.9" r="4.2" fill="#0891b2" stroke="#fff" stroke-width="1.4"/><circle cx="680" cy="158" r="4" fill="#0891b2"/><text class="legend" x="692" y="162">Chudnovsky valuation</text><path d="M82 377.74 L338 293.68 L594 204.35" fill="none" stroke="#15803d" stroke-width="2.8" stroke-linejoin="round" stroke-linecap="round"/><circle cx="82" cy="377.74" r="4.2" fill="#15803d" stroke="#fff" stroke-width="1.4"/><circle cx="338" cy="293.68" r="4.2" fill="#15803d" stroke="#fff" stroke-width="1.4"/><circle cx="594" cy="204.35" r="4.2" fill="#15803d" stroke="#fff" stroke-width="1.4"/><circle cx="680" cy="180" r="4" fill="#15803d"/><text class="legend" x="692" y="184">AGM</text><path d="M82 354.95 L338 257.27 L594 173.03" fill="none" stroke="#b45309" stroke-width="2.8" stroke-linejoin="round" stroke-linecap="round"/><circle cx="82" cy="354.95" r="4.2" fill="#b45309" stroke="#fff" stroke-width="1.4"/><circle cx="338" cy="257.27" r="4.2" fill="#b45309" stroke="#fff" stroke-width="1.4"/><circle cx="594" cy="173.03" r="4.2" fill="#b45309" stroke="#fff" stroke-width="1.4"/><circle cx="680" cy="202" r="4" fill="#b45309"/><text class="legend" x="692" y="206">Machin arctan</text><path d="M82 386.07 L338 313.07 L594 234.49 L850 168.12" fill="none" stroke="#c2410c" stroke-width="2.8" stroke-linejoin="round" stroke-linecap="round"/><circle cx="82" cy="386.07" r="4.2" fill="#c2410c" stroke="#fff" stroke-width="1.4"/><circle cx="338" cy="313.07" r="4.2" fill="#c2410c" stroke="#fff" stroke-width="1.4"/><circle cx="594" cy="234.49" r="4.2" fill="#c2410c" stroke="#fff" stroke-width="1.4"/><circle cx="850" cy="168.12" r="4.2" fill="#c2410c" stroke="#fff" stroke-width="1.4"/><circle cx="680" cy="224" r="4" fill="#c2410c"/><text class="legend" x="692" y="228">Ramanujan BS</text></svg>