<svg xmlns="http://www.w3.org/2000/svg" viewBox="0 0 960 540" role="img" aria-labelledby="title desc"><title id="title">Wall time by precision</title><desc id="desc">Verified full-prefix runs only; logarithmic axes expose growth across scales.</desc><style>text{font-family:-apple-system,BlinkMacSystemFont,'Segoe UI',sans-serif}.title{font-size:22px;font-weight:700;fill:#111827}.subtitle{font-size:12px;fill:#64748b}.axis{stroke:#1f2937;stroke-width:1.4}.grid{stroke:#d7dde8;stroke-width:1}.tick{font-size:11px;fill:#64748b}.label{font-size:12px;fill:#111827}.legend{font-size:12px;fill:#111827}</style><rect width="960" height="540" fill="#fff"/><text class="title" x="40" y="38">Wall time by precision</text><text class="subtitle" x="40" y="58">Verified full-prefix runs only; logarithmic axes expose growth across scales.</text><line class="grid" x1="82" y1="74" x2="82" y2="430"/><text class="tick" x="82" y="454" text-anchor="middle">1e3</text><line class="grid" x1="338" y1="74" x2="338" y2="430"/><text class="tick" x="338" y="454" text-anchor="middle">1e4</text><line class="grid" x1="594" y1="74" x2="594" y2="430"/><text class="tick" x="594" y="454" text-anchor="middle">1e5</text><line class="grid" x1="850" y1="74" x2="850" y2="430"/><text class="tick" x="850" y="454" text-anchor="middle">1e6</text><line class="grid" x1="82" y1="430" x2="850" y2="430"/><text class="tick" x="72" y="434" text-anchor="end">1e-2</text><line class="grid" x1="82" y1="370.67" x2="850" y2="370.67"/><text class="tick" x="72" y="374.67" text-anchor="end">1e-1</text><line class="grid" x1="82" y1="311.33" x2="850" y2="311.33"/><text class="tick" x="72" y="315.33" text-anchor="end">1e0</text><line class="grid" x1="82" y1="252" x2="850" y2="252"/><text class="tick" x="72" y="256" text-anchor="end">1e1</text><line class="grid" x1="82" y1="192.67" x2="850" y2="192.67"/><text class="tick" x="72" y="196.67" text-anchor="end">1e2</text><line class="grid" x1="82" y1="133.33" x2="850" y2="133.33"/><text class="tick" x="72" y="137.33" text-anchor="end">1e3</text><line class="grid" x1="82" y1="74" x2="850" y2="74"/><text class="tick" x="72" y="78" text-anchor="end">1e4</text><line class="axis" x1="82" y1="430" x2="850" y2="430"/><line class="axis" x1="82" y1="74" x2="82" y2="430"/><text class="label" x="466" y="494" text-anchor="middle">Decimal digits</text><text class="label" transform="translate(22 254) rotate(-90)" text-anchor="middle">Wall time (ms, log)</text><path d="M82 369.17 L338 285.76 L594 198.92 L850 124.62" fill="none" stroke="#7c3aed" stroke-width="2.8" stroke-linejoin="round" stroke-linecap="round"/><circle cx="82" cy="369.17" r="4.2" fill="#7c3aed" stroke="#fff" stroke-width="1.4"/><circle cx="338" cy="285.76" r="4.2" fill="#7c3aed" stroke="#fff" stroke-width="1.4"/><circle cx="594" cy="198.92" r="4.2" fill="#7c3aed" stroke="#fff" stroke-width="1.4"/><circle cx="850" cy="124.62" r="4.2" fill="#7c3aed" stroke="#fff" stroke-width="1.4"/><circle cx="680" cy="92" r="4" fill="#7c3aed"/><text class="legend" x="692" y="96">Borwein quartic</text><path d="M82 375.78 L338 304.04 L594 222.29 L850 169.03" fill="none" stroke="#2155d9" stroke-width="2.8" stroke-linejoin="round" stroke-linecap="round"/><circle cx="82" cy="375.78" r="4.2" fill="#2155d9" stroke="#fff" stroke-width="1.4"/><circle cx="338" cy="304.04" r="4.2" fill="#2155d9" stroke="#fff" stroke-width="1.4"/><circle cx="594" cy="222.29" r="4.2" fill="#2155d9" stroke="#fff" stroke-width="1.4"/><circle cx="850" cy="169.03" r="4.2" fill="#2155d9" stroke="#fff" stroke-width="1.4"/><circle cx="680" cy="114" r="4" fill="#2155d9"/><text class="legend" x="692" y="118">Chudnovsky BS</text><path d="M82 379.13 L338 295.3 L594 209.38" fill="none" stroke="#15803d" stroke-width="2.8" stroke-linejoin="round" stroke-linecap="round"/><circle cx="82" cy="379.13" r="4.2" fill="#15803d" stroke="#fff" stroke-width="1.4"/><circle cx="338" cy="295.3" r="4.2" fill="#15803d" stroke="#fff" stroke-width="1.4"/><circle cx="594" cy="209.38" r="4.2" fill="#15803d" stroke="#fff" stroke-width="1.4"/><circle cx="680" cy="136" r="4" fill="#15803d"/><text class="legend" x="692" y="140">AGM</text><path d="M82 362.74 L338 291.42 L594 230.36" fill="none" stroke="#c2410c" stroke-width="2.8" stroke-linejoin="round" stroke-linecap="round"/><circle cx="82" cy="362.74" r="4.2" fill="#c2410c" stroke="#fff" stroke-width="1.4"/><circle cx="338" cy="291.42" r="4.2" fill="#c2410c" stroke="#fff" stroke-width="1.4"/><circle cx="594" cy="230.36" r="4.2" fill="#c2410c" stroke="#fff" stroke-width="1.4"/><circle cx="680" cy="158" r="4" fill="#c2410c"/><text class="legend" x="692" y="162">Ramanujan BS</text></svg>