<svg xmlns="http://www.w3.org/2000/svg" viewBox="0 0 960 540" role="img" aria-labelledby="title desc"><title id="title">Wall time by precision</title><desc id="desc">Verified full-prefix runs only; logarithmic axes expose growth across scales.</desc><style>text{font-family:-apple-system,BlinkMacSystemFont,'Segoe UI',sans-serif}.title{font-size:22px;font-weight:700;fill:#111827}.subtitle{font-size:12px;fill:#64748b}.axis{stroke:#1f2937;stroke-width:1.4}.grid{stroke:#d7dde8;stroke-width:1}.tick{font-size:11px;fill:#64748b}.label{font-size:12px;fill:#111827}.legend{font-size:12px;fill:#111827}</style><rect width="960" height="540" fill="#fff"/><text class="title" x="40" y="38">Wall time by precision</text><text class="subtitle" x="40" y="58">Verified full-prefix runs only; logarithmic axes expose growth across scales.</text><line class="grid" x1="82" y1="74" x2="82" y2="430"/><text class="tick" x="82" y="454" text-anchor="middle">1e3</text><line class="grid" x1="338" y1="74" x2="338" y2="430"/><text class="tick" x="338" y="454" text-anchor="middle">1e4</text><line class="grid" x1="594" y1="74" x2="594" y2="430"/><text class="tick" x="594" y="454" text-anchor="middle">1e5</text><line class="grid" x1="850" y1="74" x2="850" y2="430"/><text class="tick" x="850" y="454" text-anchor="middle">1e6</text><line class="grid" x1="82" y1="430" x2="850" y2="430"/><text class="tick" x="72" y="434" text-anchor="end">1e-2</text><line class="grid" x1="82" y1="370.67" x2="850" y2="370.67"/><text class="tick" x="72" y="374.67" text-anchor="end">1e-1</text><line class="grid" x1="82" y1="311.33" x2="850" y2="311.33"/><text class="tick" x="72" y="315.33" text-anchor="end">1e0</text><line class="grid" x1="82" y1="252" x2="850" y2="252"/><text class="tick" x="72" y="256" text-anchor="end">1e1</text><line class="grid" x1="82" y1="192.67" x2="850" y2="192.67"/><text class="tick" x="72" y="196.67" text-anchor="end">1e2</text><line class="grid" x1="82" y1="133.33" x2="850" y2="133.33"/><text class="tick" x="72" y="137.33" text-anchor="end">1e3</text><line class="grid" x1="82" y1="74" x2="850" y2="74"/><text class="tick" x="72" y="78" text-anchor="end">1e4</text><line class="axis" x1="82" y1="430" x2="850" y2="430"/><line class="axis" x1="82" y1="74" x2="82" y2="430"/><text class="label" x="466" y="494" text-anchor="middle">Decimal digits</text><text class="label" transform="translate(22 254) rotate(-90)" text-anchor="middle">Wall time (ms, log)</text><path d="M82 341.93 L338 281.03 L594 197.83 L850 123.91" fill="none" stroke="#7c3aed" stroke-width="2.8" stroke-linejoin="round" stroke-linecap="round"/><circle cx="82" cy="341.93" r="4.2" fill="#7c3aed" stroke="#fff" stroke-width="1.4"/><circle cx="338" cy="281.03" r="4.2" fill="#7c3aed" stroke="#fff" stroke-width="1.4"/><circle cx="594" cy="197.83" r="4.2" fill="#7c3aed" stroke="#fff" stroke-width="1.4"/><circle cx="850" cy="123.91" r="4.2" fill="#7c3aed" stroke="#fff" stroke-width="1.4"/><circle cx="680" cy="92" r="4" fill="#7c3aed"/><text class="legend" x="692" y="96">Borwein quartic</text><path d="M82 384.7 L338 324.16 L594 245.89 L850 169.93" fill="none" stroke="#2155d9" stroke-width="2.8" stroke-linejoin="round" stroke-linecap="round"/><circle cx="82" cy="384.7" r="4.2" fill="#2155d9" stroke="#fff" stroke-width="1.4"/><circle cx="338" cy="324.16" r="4.2" fill="#2155d9" stroke="#fff" stroke-width="1.4"/><circle cx="594" cy="245.89" r="4.2" fill="#2155d9" stroke="#fff" stroke-width="1.4"/><circle cx="850" cy="169.93" r="4.2" fill="#2155d9" stroke="#fff" stroke-width="1.4"/><circle cx="680" cy="114" r="4" fill="#2155d9"/><text class="legend" x="692" y="118">Chudnovsky BS</text><path d="M82 351.3 L338 287.27 L594 206.1" fill="none" stroke="#15803d" stroke-width="2.8" stroke-linejoin="round" stroke-linecap="round"/><circle cx="82" cy="351.3" r="4.2" fill="#15803d" stroke="#fff" stroke-width="1.4"/><circle cx="338" cy="287.27" r="4.2" fill="#15803d" stroke="#fff" stroke-width="1.4"/><circle cx="594" cy="206.1" r="4.2" fill="#15803d" stroke="#fff" stroke-width="1.4"/><circle cx="680" cy="136" r="4" fill="#15803d"/><text class="legend" x="692" y="140">AGM</text><path d="M82 385.15 L338 310.75 L594 231.38 L850 154.88" fill="none" stroke="#c2410c" stroke-width="2.8" stroke-linejoin="round" stroke-linecap="round"/><circle cx="82" cy="385.15" r="4.2" fill="#c2410c" stroke="#fff" stroke-width="1.4"/><circle cx="338" cy="310.75" r="4.2" fill="#c2410c" stroke="#fff" stroke-width="1.4"/><circle cx="594" cy="231.38" r="4.2" fill="#c2410c" stroke="#fff" stroke-width="1.4"/><circle cx="850" cy="154.88" r="4.2" fill="#c2410c" stroke="#fff" stroke-width="1.4"/><circle cx="680" cy="158" r="4" fill="#c2410c"/><text class="legend" x="692" y="162">Ramanujan BS</text></svg>